{
    "asset": {
        "copyright": "(C)2019 ",
        "generator": "maya2glTF V0.9.11 cmake d30636f",
        "version": "2.0"
    },
    "scenes": [
        {
            "nodes": [
                0
            ]
        }
    ],
    "scene": 0,
    "nodes": [
        {
            "children": [
                1
            ],
            "translation": [
                0.27500003576278689,
                0.02500000596046448,
                0.0
            ],
            "name": "pCube4"
        },
        {
            "mesh": 0,
            "translation": [
                -0.27500003576278689,
                -0.02500000596046448,
                -0.0
            ],
            "name": "pCube4:PIV"
        }
    ],
    "meshes": [
        {
            "primitives": [
                {
                    "attributes": {
                        "NORMAL": 1,
                        "POSITION": 2,
                        "TANGENT": 3,
                        "TEXCOORD_0": 4
                    },
                    "indices": 0,
                    "mode": 4,
                    "material": 0
                }
            ],
            "name": "pCubeShape4"
        }
    ],
    "accessors": [
        {
            "bufferView": 0,
            "byteOffset": 0,
            "componentType": 5123,
            "count": 120,
            "max": [
                60
            ],
            "min": [
                0
            ],
            "type": "SCALAR"
        },
        {
            "bufferView": 1,
            "byteOffset": 0,
            "componentType": 5126,
            "count": 61,
            "max": [
                1.0,
                1.0,
                1.0
            ],
            "min": [
                -1.0,
                -1.0,
                -1.0
            ],
            "type": "VEC3"
        },
        {
            "bufferView": 1,
            "byteOffset": 732,
            "componentType": 5126,
            "count": 61,
            "max": [
                0.3500000238418579,
                0.15000000596046449,
                0.15000000596046449
            ],
            "min": [
                0.20000004768371586,
                -0.09999999403953552,
                -0.15000000596046449
            ],
            "type": "VEC3"
        },
        {
            "bufferView": 2,
            "byteOffset": 0,
            "componentType": 5126,
            "count": 61,
            "max": [
                0.9997012615203856,
                0.9996763467788696,
                1.0,
                1.0
            ],
            "min": [
                -0.7630199790000916,
                -0.9123677015304564,
                -1.0,
                -1.0
            ],
            "type": "VEC4"
        },
        {
            "bufferView": 3,
            "byteOffset": 0,
            "componentType": 5126,
            "count": 61,
            "max": [
                0.875,
                1.0
            ],
            "min": [
                0.125,
                0.0
            ],
            "type": "VEC2"
        }
    ],
    "materials": [
        {
            "pbrMetallicRoughness": {
                "baseColorFactor": [
                    0.4000000059604645,
                    0.4000000059604645,
                    0.4000000059604645,
                    1.0
                ],
                "metallicFactor": 0.0,
                "roughnessFactor": 1.0
            },
            "name": "lambert1"
        }
    ],
    "bufferViews": [
        {
            "buffer": 0,
            "byteOffset": 2928,
            "byteLength": 240,
            "target": 34963
        },
        {
            "buffer": 0,
            "byteOffset": 976,
            "byteLength": 1464,
            "byteStride": 12,
            "target": 34962
        },
        {
            "buffer": 0,
            "byteOffset": 0,
            "byteLength": 976,
            "byteStride": 16,
            "target": 34962
        },
        {
            "buffer": 0,
            "byteOffset": 2440,
            "byteLength": 488,
            "byteStride": 8,
            "target": 34962
        }
    ],
    "buffers": [
        {
            "byteLength": 3168,
            "uri": "o0.bin"
        }
    ]
}
