<svg id="Layer_1" data-name="Layer 1" xmlns="http://www.w3.org/2000/svg" viewBox="0 0 152.5 152.68"><defs><style>.cls-1{fill:#1d5668;}.cls-2{fill:#32788e;}.cls-3,.cls-6{fill:none;}.cls-3,.cls-4,.cls-6{stroke:#fff;stroke-miterlimit:10;}.cls-3,.cls-4{stroke-width:4px;}.cls-4{fill:#246984;}.cls-5{fill:#fff;}.cls-6{stroke-linecap:round;stroke-width:8.16px;}</style></defs><title>arrow-up</title><path class="cls-1" d="M46,2C24,3,15.11,9.76,7.2,18.36,3.85,22,2,28.79,2,33.74v97.81a19.19,19.19,0,0,0,19.13,19.13H121.49a20.94,20.94,0,0,0,14.08-5.45C144.93,136.7,150.49,116.6,150,108"/><path class="cls-2" d="M121.49,150.68a20.94,20.94,0,0,0,14.08-5.45c5.25-4.79,9.31-13.23,11.77-21.23L48,104C34,118,9,146,9,146c2.17.85,9.67,4.68,12.13,4.68Z"/><path class="cls-3" d="M46,2C24,3,15.11,9.76,7.2,18.36,3.85,22,2,28.79,2,33.74v97.81a19.19,19.19,0,0,0,19.13,19.13H121.49a20.94,20.94,0,0,0,14.08-5.45C144.93,136.7,150.49,116.6,150,108"/><rect class="cls-4" x="28.73" y="2.13" width="121.77" height="121.77" rx="18.1" ry="18.1" transform="translate(179.23 126.03) rotate(-180)"/><path class="cls-1" d="M131.25,114H91c39.67-4.09,46.08-14,49-45.5v36.75A8.78,8.78,0,0,1,131.25,114Z"/><path class="cls-5" d="M62.81,14.2l8,13.83a3.08,3.08,0,0,1-2.66,4.61h-16A3.07,3.07,0,0,1,49.5,28l8-13.83A3.08,3.08,0,0,1,62.81,14.2Z"/><line class="cls-6" x1="60.14" y1="29.17" x2="60.14" y2="75.69"/></svg>