<svg id="Layer_1" data-name="Layer 1" xmlns="http://www.w3.org/2000/svg" viewBox="0 0 144 126"><defs><style>.cls-1{fill:#fff;}.cls-2{fill:#2f6b8e;}</style></defs><title>car</title><path class="cls-1" d="M52.84,41.8h4.28a2.85,2.85,0,0,0,.29,0c.76,0,1.53,0,2.29,0,.18,0,.35,0,.53,0h4.23l.24,0c3.31,0,6.62.07,9.92.35a40.1,40.1,0,0,1,5.77.83,20.35,20.35,0,0,1,2.67.76c1,.39,2,.9,2.93,1.36a178.74,178.74,0,0,1,16.86,8.95,1.64,1.64,0,0,0,.8.25c1.66.15,3.32.26,5,.46q3.89.45,7.75,1c3.1.43,6.18,1,9.22,1.71a30.74,30.74,0,0,1,5.23,1.62,4,4,0,0,1,1.74,1.12,15.14,15.14,0,0,1,2.76,5.53.41.41,0,0,0,.17.25,1.28,1.28,0,0,1,.67.92,6.78,6.78,0,0,1,.08,1.49,30.51,30.51,0,0,0-.34,3.16c0,.87,0,1.73,0,2.6a.34.34,0,0,1-.25.35l-3.05,1.22a5.89,5.89,0,0,1-1.25.46c-1.63.23-3.27.41-4.91.62a29.31,29.31,0,0,0-5.5,1,.5.5,0,0,0-.36.29A8,8,0,0,1,117,81.89a10.85,10.85,0,0,1-8.35.85,9.94,9.94,0,0,1-6.57-5.08.3.3,0,0,0-.25-.12,6.33,6.33,0,0,0-.74.12A13.68,13.68,0,0,1,98,78c-1.23,0-2.46,0-3.69,0l-21.21-.21c-7.1-.07-14.21-.12-21.31-.21-.59,0-1,.1-1.24.64-.07.16-.2.19-.37.19l-3.32-.11a.23.23,0,0,0-.28.19,7.59,7.59,0,0,1-3.13,3.9A11.47,11.47,0,0,1,33.3,83.55,8.44,8.44,0,0,1,28,78.9c-.25-.56-.42-1.15-.64-1.75H27a12.49,12.49,0,0,1-1.5,0c-2.11-.28-4.22-.6-6.33-.9s-4.34-.64-6.52-.88a5.09,5.09,0,0,1-2.63-1A6.47,6.47,0,0,1,7.74,72V71.8c.18-.25.38-.49.55-.74a.3.3,0,0,0,0-.21c-.11-1.14-.2-2.29-.35-3.43A4.73,4.73,0,0,1,8.22,65a1.79,1.79,0,0,1,.89-1c.15-.07.17-.17.17-.32,0-1.34,0-2.69.07-4a23.37,23.37,0,0,1,.48-4.17,5.79,5.79,0,0,1,.76-2,1.51,1.51,0,0,1,1.2-.75c.6,0,1.2-.16,1.8-.23l5.55-.72a5.82,5.82,0,0,0,2.19-.53c.52-.3,1.09-.53,1.64-.78,3.39-1.59,6.78-3.21,10.19-4.77a33.34,33.34,0,0,1,6-2.13c1.34-.32,2.7-.53,4-.75a70.86,70.86,0,0,1,7.83-.79Z"/><path class="cls-2" d="M52.84,41.8h4.28a2.85,2.85,0,0,0,.29,0c.76,0,1.53,0,2.29,0,.18,0,.35,0,.53,0h4.23l.24,0c3.31,0,6.62.07,9.92.35a40.1,40.1,0,0,1,5.77.83,20.35,20.35,0,0,1,2.67.76c1,.39,2,.9,2.93,1.36a178.74,178.74,0,0,1,16.86,8.95,1.64,1.64,0,0,0,.8.25c1.66.15,3.32.26,5,.46q3.89.45,7.75,1c3.1.43,6.18,1,9.22,1.71a30.74,30.74,0,0,1,5.23,1.62,4,4,0,0,1,1.74,1.12,15.14,15.14,0,0,1,2.76,5.53.41.41,0,0,0,.17.25,1.28,1.28,0,0,1,.67.92,6.78,6.78,0,0,1,.08,1.49,30.51,30.51,0,0,0-.34,3.16c0,.87,0,1.73,0,2.6a.34.34,0,0,1-.25.35l-3.05,1.22a5.89,5.89,0,0,1-1.25.46c-1.63.23-3.27.41-4.91.62a29.31,29.31,0,0,0-5.5,1,.5.5,0,0,0-.36.29A8,8,0,0,1,117,81.89a10.85,10.85,0,0,1-8.35.85,9.94,9.94,0,0,1-6.57-5.08.3.3,0,0,0-.25-.12,6.33,6.33,0,0,0-.74.12A13.68,13.68,0,0,1,98,78c-1.23,0-2.46,0-3.69,0l-21.21-.21c-7.1-.07-14.21-.12-21.31-.21-.59,0-1,.1-1.24.64-.07.16-.2.19-.37.19l-3.32-.11a.23.23,0,0,0-.28.19,7.59,7.59,0,0,1-3.13,3.9A11.47,11.47,0,0,1,33.3,83.55,8.44,8.44,0,0,1,28,78.9c-.25-.56-.42-1.15-.64-1.75H27a12.49,12.49,0,0,1-1.5,0c-2.11-.28-4.22-.6-6.33-.9s-4.34-.64-6.52-.88a5.09,5.09,0,0,1-2.63-1A6.47,6.47,0,0,1,7.74,72V71.8c.18-.25.38-.49.55-.74a.3.3,0,0,0,0-.21c-.11-1.14-.2-2.29-.35-3.43A4.73,4.73,0,0,1,8.22,65a1.79,1.79,0,0,1,.89-1c.15-.07.17-.17.17-.32,0-1.34,0-2.69.07-4a23.37,23.37,0,0,1,.48-4.17,5.79,5.79,0,0,1,.76-2,1.51,1.51,0,0,1,1.2-.75c.6,0,1.2-.16,1.8-.23l5.55-.72a5.82,5.82,0,0,0,2.19-.53c.52-.3,1.09-.53,1.64-.78,3.39-1.59,6.78-3.21,10.19-4.77a33.34,33.34,0,0,1,6-2.13c1.34-.32,2.7-.53,4-.75a70.86,70.86,0,0,1,7.83-.79ZM91,51.44c-.12-.1-.18-.17-.26-.23-1-.7-1.87-1.44-2.84-2.09a29.24,29.24,0,0,0-13-4.92c-2.61-.31-5.23-.4-7.85-.47l-.19,0c0,.11.06.19.09.28q1.58,4.48,3.16,9a2.36,2.36,0,0,0,2.27,1.71c3,.14,5.92.25,8.88.38l7.25.3H89c-1-1-1.25-1.75-.8-2.68A2.48,2.48,0,0,1,91,51.44ZM46.67,44.83c0,.41.09.78.13,1.14q.45,3.81.89,7.62c0,.22.1.29.31.29l6.91.24,8.5.28a2.84,2.84,0,0,0,.82-.1A.92.92,0,0,0,65,53.22a2.33,2.33,0,0,0,0-.37c-.53-3-1.07-6-1.59-9,0-.18-.11-.23-.28-.23H60.84a79.63,79.63,0,0,0-11.24.68C48.63,44.47,47.67,44.65,46.67,44.83ZM30.22,74.29a7,7,0,1,0,7-7A7,7,0,0,0,30.22,74.29Zm81.63,6.11a7,7,0,1,0-7-7A7,7,0,0,0,111.85,80.4ZM45.91,45l-.19,0a24.41,24.41,0,0,0-7.28,3,11.37,11.37,0,0,0-1.33.94,2.14,2.14,0,0,0-.66,2.53,2.82,2.82,0,0,0,2.73,2.05l6,.19c.57,0,1.13,0,1.73,0ZM14.42,61.56c0-.11,0-.19.05-.27a16.39,16.39,0,0,0,0-3.57,10.75,10.75,0,0,0-.37-1.86,3.29,3.29,0,0,0-1.53-2c-.46-.28-.58-.28-.91.14a6,6,0,0,0-.47.95,12.32,12.32,0,0,0-.4,1.44,20.6,20.6,0,0,0-.34,4.51c0,.21,0,.42,0,.63ZM124.68,65h9a10,10,0,0,0-2.86-3.78.37.37,0,0,0-.27-.07c-1.07.07-2.13.14-3.2.23a1.6,1.6,0,0,0-1.42,1c-.24.56-.52,1.11-.79,1.67C125,64.31,124.85,64.61,124.68,65ZM43.43,58.57h2c.44,0,.7-.23.71-.6s-.26-.62-.71-.62h-4a.62.62,0,0,0-.7.61c0,.37.27.6.7.61Zm29.1.69h2a.61.61,0,1,0,0-1.21H70.51a.61.61,0,1,0,0,1.21Z"/></svg>