<svg id="Layer_1" data-name="Layer 1" xmlns="http://www.w3.org/2000/svg" viewBox="0 0 144 126"><defs><style>.cls-1{fill:#2f6b8e;}.cls-2{fill:#fff;}</style></defs><title>click-arrow</title><path class="cls-1" d="M91.69,99.61c-.6-.54-1.23-1-1.8-1.61Q79.48,87.6,69.09,77.18a14.77,14.77,0,0,1-1.25-1.69c-.94,3.11-1.72,5.64-2.48,8.19-.71,2.38-1.42,4.76-2.1,7.15-.32,1.12-.83,2.06-2.11,2.13s-1.94-.85-2.38-2q-11.33-30.12-22.7-60.2c-.19-.49-.45-.95-.68-1.43V26.39h2.93c4.42,1.73,8.81,3.49,13.24,5.16Q75.76,40.69,100,49.76c1.17.44,2.07,1,2,2.39S100.83,54,99.67,54.3c-5,1.32-9.91,2.66-15.12,4.07.52.54.89,1,1.29,1.35q10.51,10.53,21,21.06c.61.6,1.15,1.27,1.73,1.91V84c-.5.56-1,1.15-1.48,1.68q-4.84,4.88-9.72,9.72c-1.45,1.43-3,2.81-4.42,4.22Zm1.24-47.93L41.21,32.21l19.55,52,3.56-11.89c.92-3.09,2.38-3.47,4.66-1.2L91.05,93.15c.41.41.84.79,1.15,1.09l11-11c-.31-.33-.71-.77-1.12-1.18-7.51-7.52-15-15.09-22.57-22.5-2-1.93-1.27-4,1.21-4.58C84.69,54.08,88.56,52.87,92.93,51.68Z"/><path class="cls-2" d="M92.93,51.68c-4.37,1.19-8.24,2.4-12.19,3.27-2.48.55-3.2,2.65-1.21,4.58,7.61,7.41,15.06,15,22.57,22.5.41.41.81.85,1.12,1.18l-11,11c-.31-.3-.74-.68-1.15-1.09L69,71.07c-2.28-2.27-3.74-1.89-4.66,1.2L60.76,84.16,41.21,32.21Z"/></svg>