<svg id="Layer_1" data-name="Layer 1" xmlns="http://www.w3.org/2000/svg" viewBox="0 0 144 126"><defs><style>.cls-1{fill:#2f6b8e;}.cls-2{fill:none;stroke:#fff;stroke-miterlimit:10;stroke-width:0.33px;}.cls-3{font-size:7px;fill:#fff;font-family:ArialMT, Arial;}.cls-4{letter-spacing:-0.04em;}</style></defs><title>desk</title><path class="cls-1" d="M14.16,92.84c.26-1.71.55-3.42.78-5.14.5-3.71,1.09-7.4,1.41-11.12a41.14,41.14,0,0,0-.23-5.86,17.76,17.76,0,0,1-.19-3.15c.08-.59.79-1.08,1.21-1.62l.6.16a14,14,0,0,1-.54-2.59c0-1.23.19-2.46.29-3.7,1.22.33,2.45.64,3.66,1a2.76,2.76,0,0,1,.58.33c.1-1.35.11-2.61.3-3.85,1-6.15,4.54-10.59,9.06-14.63,2-1.77,3.2-4.41,4.68-6.71.09-.15-.48-1-.81-1.09-1.36-.17-1.79-.59-1-1.91.16-.28-.28-1-.57-1.41-2-3-1.43-5.91-.44-9.14,1.08-3.52,3.82-4.42,6.66-5.5.65-.24,1.27-.59,1.9-.88h3.84c2.16,1.39,4.27,2.88,6.52,4.11.86.47,2.23.12,2,1.76A10.5,10.5,0,0,1,53.38,25c-1.73,3.67-1.6,4.22.32,6.1.37.37.37,1.13.54,1.7l-1.3.26c-.44,1.27-1.16,2.39-1.14,3.5,0,2.61-1.53,2.69-3.37,2.53a14,14,0,0,1-1.89-.38l-1.36,3.25c.63,1.79,1.66,3.38,1.65,5,0,3.56,1.28,6.68,2.21,10,1.24,4.37,1.5,9,2.19,13.67a19.18,19.18,0,0,1,3.79.31A5.75,5.75,0,0,0,60,70a16.62,16.62,0,0,1,3.17-1.62c2.24-.85,6.33.32,7.06,2.35.57,1.58,1.4,1.69,2.67,1.63,2.29-.11,4.49-.83,6.94-.23,1.1.27,2.77-.76,4.42-.55A2.86,2.86,0,0,1,87.09,74a2.13,2.13,0,0,1-2.36,2.56q-9.92.06-19.84,0c-2.12,0-2.42-.56-1.5-2.5-1.08.72-2.06,1.87-3.14,2-1.92.17-2.22,1-1.79,2.34l-4.19,1.3A46.19,46.19,0,0,1,59,83a10.06,10.06,0,0,0,6.27,2.36,90.74,90.74,0,0,1,12.56,2.12c3.63.83,5,3.5,3.84,7.14-.41,1.29-1.4,2.39-2,3.65C78.27,101.6,77,105,75.47,108.39c-.27.61-1,1.43-1.54,1.45-4,.12-7.91.07-12.58.07q1.71-5.53,3-9.72H51.79c-.07,5.44-2.15,7.21-7.24,6.79a41.88,41.88,0,0,0-4.3,0c-1,1.32-1.47,2.73-2.2,2.86a34.86,34.86,0,0,1-6,.11l.67-2.83-.63-.45c-.54.58-1.08,1.17-1.61,1.76s-.89,1.41-1.4,1.46c-1.81.18-3.64.07-5.73.07.72-2-.35-2.53-1.74-2.93-3.47-1-6.36-2.72-7.46-6.48ZM26.05,85c.1-.75-.53-1.61-1-2.79A7.83,7.83,0,0,1,24,83.67c-.52.36-1.38.94-1.67.76A3.11,3.11,0,0,1,21,82.59c-.74-4-1.35-8-2.37-12.13a6,6,0,0,0-.2,1.24c.25,5.69-.85,11.2-1.86,16.78-.7,3.87-1.4,7.89,0,11.93,1,3,3,4.21,6,4.78-5.15-5.58-4.11-10.76,1.84-11.25C25,90.91,25.62,88,26.05,85Z"/><path class="cls-1" d="M129.84,77.9a10.32,10.32,0,0,0-2.7-.82c-21.54,0-43.08,0-64.62,0-1.71,0-2.87.48-3.12,2.34-.29,2.15,1.51,2.23,2.78,2.75a4.58,4.58,0,0,0,1.7,0H88V109.8h3.78V82.32h29.1v27.49h3.78V82.63l5.22-1.31Z"/><path class="cls-1" d="M109.46,62.37c-3.21.57-6.72-.5-9.1,3.08h18.43c-.22-1.73-1.58-2.08-2.75-2.66a3.52,3.52,0,0,1-1.59-1.12c-.88-1.62-1.59-3.32-2.3-5a3,3,0,0,1-.26-1.61,1.8,1.8,0,0,0-1.54-2.34c-1.06-.27-1.64-1.08-.84-1.84,4-3.75,2.95-8.81,3.56-13.39.48-3.58.5-7.23.68-10.84.2-4.1-3.74-8.49-7.71-8.38-.43,13.49-.86,27-1.3,40.77l3.77-.45Z"/><path class="cls-1" d="M127.28,76.55c0-3,0-5.88,0-8.72,0-1.36-.61-1.92-2.07-1.91-9.15.06-18.3,0-27.45,0-2,0-2.89.87-2.91,2.94,0,1.77,0,3.54,0,5.54h4.23v.46H95l-.25.65c.7.36,1.39,1,2.08,1,9.66.07,19.31.05,29,.05C126.18,76.62,126.6,76.58,127.28,76.55Z"/><line class="cls-2" x1="57.74" y1="28.5" x2="68.18" y2="28.5"/><line class="cls-2" x1="88.77" y1="28.5" x2="103.4" y2="28.5"/><text class="cls-3" transform="translate(69.61 30.19)">2 to 3<tspan class="cls-4" x="17.51" y="0">’</tspan></text></svg>