<svg id="Layer_1" data-name="Layer 1" xmlns="http://www.w3.org/2000/svg" viewBox="0 0 144 126"><defs><style>.cls-1{fill:#fff;}.cls-2{fill:#2f6b8e;}</style></defs><title>eye-hand</title><path class="cls-1" d="M88.09,61.75a12.16,12.16,0,0,0,5.63,3.43,17.31,17.31,0,0,0,6,.81c1.27-.12,5.66-1.43,6.47-2.2s.77-2.88-.19-3.46-6.43-2-8.86-2.62-3.81,0-6,.42S87.4,60.91,88.09,61.75Z"/><path d="M27.33,46.82l.17,0,.08-.11C27.49,46.73,27.41,46.76,27.33,46.82Z"/><path class="cls-2" d="M119.32,55.06a3.75,3.75,0,0,0-.81-.68c-2.59-1.37-5.15-2.82-7.81-4a10.85,10.85,0,0,0-6.13-.74c-5.12.74-10.25,1.43-15.38,2.15-3.93.56-6.25,3.08-7.93,6.54a2,2,0,0,0,.62.1,24.34,24.34,0,0,1,3-.49,2.2,2.2,0,0,1,1.73.59c.25.37-.06,1.2-.28,1.77-.38,1-.88,2-1.33,3l.3.2c2.71-.92,4.79,1.42,7.43,1.33A5.79,5.79,0,0,1,91.52,64c-.62-.66-1.15-1.4-1.71-2.1.8-.63,1.6-1.27,2.41-1.89.07,0,.22,0,.4,0,.58,2.66,2.49,3.71,5,3.83a9.63,9.63,0,0,0,6.24-2.1,4.57,4.57,0,0,1,1.06-.45c.07.46.37,1.12.17,1.34a7.75,7.75,0,0,1-2.57,2.23,30,30,0,0,1-5,1.06c.7,0,1.19.09,1.68.08a20.89,20.89,0,0,0,7.42-1.69,4.36,4.36,0,0,1,2.1-.12c1.48.21,2.94.55,4.25.81a26.46,26.46,0,0,1-3.92-3.37,11.73,11.73,0,0,0-7.61-4.46,6.27,6.27,0,0,1-1.13-.3,8.76,8.76,0,0,1-1-.53c.65-.26,1.09-.62,1.42-.53,4.54,1.19,8.75,3,11.74,7a5.06,5.06,0,0,0-.54-2.08,9.5,9.5,0,0,0-5.64-4.37c-2.24-.8-4.55-1.43-6.83-2.15-.38-.12-.74-.3-1.1-.45,0-.12,0-.24,0-.35a9.32,9.32,0,0,1,1.91-.69c2.8-.36,5.6-.7,8.42-.94a13.67,13.67,0,0,1,9.65,3.07c.35.27.73.51,1.09.77C119.47,55.3,119.42,55.15,119.32,55.06Z"/><path class="cls-2" d="M27.32,65.7c7.71-2,15.67-1.84,23.57-1.83,3,0,5.86-6.43,1.94-6.44-8.48,0-16.77,0-25,2.16-2.95.76-4.75,7.21-.48,6.11Z"/><path class="cls-2" d="M56.61,59.62A114.46,114.46,0,0,0,39.45,53c-3.33-1-6.87,2-2.27,3.41a102.6,102.6,0,0,1,15.5,6.09c2.49,1.2,8.14-.82,3.93-2.85Z"/></svg>