<svg id="Layer_1" data-name="Layer 1" xmlns="http://www.w3.org/2000/svg" viewBox="0 0 250.51 114.09"><defs><style>.cls-1{fill:#1458a7;}.cls-2{fill:#f3b128;}.cls-3{fill:#6d6e70;}.cls-4{fill:none;stroke:#f3b128;stroke-linecap:round;stroke-linejoin:bevel;stroke-width:6.45px;}</style></defs><title>global-logo</title><path class="cls-1" d="M37.61,47.52c5.8,0,9.11,3.31,9.11,9.11V87.28c0,13.26-5.8,19.06-19,19.06H3.07V95.73H23c3.48,0,6.38-.41,7.46-4.3H18.23C4.14,91.43,0,82.81,0,69.56s4.14-22,18.23-22ZM30.49,63.26c0-3.31-.83-4.14-4.15-4.14h-3c-6.13,0-6.79,5.13-6.79,10.44,0,4.22.74,10.27,6.46,10.27h7.46Z"/><path class="cls-1" d="M53,33.43H69.26v58H53Z"/><path class="cls-2" d="M125.09,69.47c0,18.23-7.12,22.45-25.35,22.45S74.39,87.7,74.39,69.47,81.52,47,99.74,47,125.09,51.25,125.09,69.47ZM99.74,80.32c7.46,0,8.78-4.22,8.78-10.85s-1.32-10.85-8.78-10.85S91,62.84,91,69.47,92.29,80.32,99.74,80.32Z"/><path class="cls-1" d="M139.34,91.43c-5.8,0-9.11-3.32-9.11-9.12V33.43h16.23V47.52h12.27c14.08,0,18.22,8.7,18.22,21.95s-4.14,22-18.22,22Zm7.12-15.74c0,3.31.83,4.14,4.15,4.14h3c6.13,0,6.79-5.06,6.79-10.36,0-4.22-.74-10.35-6.46-10.35h-7.46Z"/><path class="cls-1" d="M213.07,47.52c9.11,0,14.91,5.8,14.91,14.91V82.31c0,5.8-3.31,9.12-9.11,9.12H191.7c-8.29,0-10.77-4.81-10.77-13.92,0-8.29,2.48-13.59,10.77-13.59h20v-.83c0-2.9-1.9-4.3-5-4.3H183.91V47.52ZM200.23,74.19a3.13,3.13,0,0,0-3.07,3.32,3,3,0,0,0,2.9,3.15h8.37c2.49,0,3.31-.83,3.31-3.32V74.19Z"/><path class="cls-1" d="M234.28,33.43h16.23v58H234.28Z"/><path class="cls-3" d="M53,102v-1.27h7.12V102h-2.9v11.72H55.92V102Z"/><path class="cls-3" d="M64,100.77h2.59a15.38,15.38,0,0,1,2.93.18,3.35,3.35,0,0,1,1.88,1.13,3.28,3.28,0,0,1,.72,2.15,3.44,3.44,0,0,1-.49,1.86,3.11,3.11,0,0,1-1.43,1.22,6.71,6.71,0,0,1-2.56.42l4.67,6H70.73l-4.67-6h-.73v6H64Zm1.3,1.27v4.42l2.24,0a5.69,5.69,0,0,0,1.92-.25,2,2,0,0,0,1-.79,2.15,2.15,0,0,0,.35-1.22,2.12,2.12,0,0,0-.35-1.18,2,2,0,0,0-.93-.77,5.71,5.71,0,0,0-1.91-.23Z"/><path class="cls-3" d="M81.47,100.77l6.06,13h-1.4l-2-4.27H78.49l-2,4.27H75l6.13-13Zm-.16,2.76-2.23,4.7h4.44Z"/><path class="cls-3" d="M91,100.77h6.51V102H92.25v4.07h5.21v1.27H92.25v6.38H91Z"/><path class="cls-3" d="M101.76,100.77h6.51V102h-5.21v4.07h5.21v1.27h-5.21v6.38h-1.3Z"/><path class="cls-3" d="M112.3,100.77h1.29v13H112.3Z"/><path class="cls-3" d="M129.89,103.18l-1,.79a5.54,5.54,0,0,0-2-1.68,6.14,6.14,0,0,0-2.61-.56,5.72,5.72,0,0,0-2.88.74,5.35,5.35,0,0,0-2,2,5.47,5.47,0,0,0-.73,2.83,5.29,5.29,0,0,0,1.63,4,5.63,5.63,0,0,0,4.11,1.59,5.76,5.76,0,0,0,4.56-2.14l1,.78a6.49,6.49,0,0,1-2.42,1.91,7.61,7.61,0,0,1-3.24.68,6.75,6.75,0,0,1-5.38-2.27,6.86,6.86,0,0,1-1.65-4.63,6.45,6.45,0,0,1,2-4.8,6.87,6.87,0,0,1,5-1.94,7.45,7.45,0,0,1,3.28.71A6.37,6.37,0,0,1,129.89,103.18Z"/><path class="cls-3" d="M153.58,103l-1,1a7.41,7.41,0,0,0-2.38-1.62,6.36,6.36,0,0,0-2.52-.56,6,6,0,0,0-2.91.75,5.46,5.46,0,0,0-2.14,2,5.22,5.22,0,0,0-.76,2.71,5.32,5.32,0,0,0,.79,2.79,5.54,5.54,0,0,0,2.17,2.07,6.18,6.18,0,0,0,3,.76,5.23,5.23,0,0,0,3.39-1.13,4.46,4.46,0,0,0,1.64-2.93h-4.14v-1.26h5.6a6.57,6.57,0,0,1-1.79,4.79,6.41,6.41,0,0,1-4.74,1.77,7.1,7.1,0,0,1-5.7-2.46,6.5,6.5,0,0,1-1.62-4.37,6.78,6.78,0,0,1,3.47-5.92,7.4,7.4,0,0,1,3.66-.89,8,8,0,0,1,3.1.59A9.44,9.44,0,0,1,153.58,103Z"/><path class="cls-3" d="M158.12,100.77h2.58a15.51,15.51,0,0,1,2.94.18,3.38,3.38,0,0,1,1.88,1.13,3.28,3.28,0,0,1,.72,2.15,3.45,3.45,0,0,1-.5,1.86,3.09,3.09,0,0,1-1.42,1.22,6.74,6.74,0,0,1-2.56.42l4.67,6h-1.61l-4.67-6h-.73v6h-1.3Zm1.3,1.27v4.42l2.23,0a5.72,5.72,0,0,0,1.93-.25,2,2,0,0,0,1-.79,2.23,2.23,0,0,0,.35-1.22,2.05,2.05,0,0,0-.36-1.18,2,2,0,0,0-.92-.77,5.75,5.75,0,0,0-1.91-.23Z"/><path class="cls-3" d="M176.25,100.45a6.73,6.73,0,0,1,4.94,2,6.83,6.83,0,0,1-4.83,11.68,6.65,6.65,0,0,1-4.88-2,6.53,6.53,0,0,1-2-4.79,7,7,0,0,1,.9-3.47,6.68,6.68,0,0,1,5.85-3.4Zm.06,1.26a5.35,5.35,0,0,0-2.73.75,5.44,5.44,0,0,0-2,2,5.68,5.68,0,0,0-.72,2.84,5.45,5.45,0,0,0,5.47,5.5,5.55,5.55,0,0,0,2.8-.73,5.25,5.25,0,0,0,2-2,5.61,5.61,0,0,0,.72-2.82,5.51,5.51,0,0,0-.72-2.8,5.42,5.42,0,0,0-2-2A5.5,5.5,0,0,0,176.31,101.71Z"/><path class="cls-3" d="M187.15,100.77h1.3v7.84c0,.93,0,1.51.05,1.74a3.08,3.08,0,0,0,.45,1.29,2.7,2.7,0,0,0,1.09.86,3.44,3.44,0,0,0,1.47.35,2.88,2.88,0,0,0,2.23-1,3.18,3.18,0,0,0,.58-1.18,9.61,9.61,0,0,0,.13-2v-7.84h1.3v7.84a9.39,9.39,0,0,1-.34,2.81,3.83,3.83,0,0,1-1.36,1.87,3.89,3.89,0,0,1-2.47.8,4.72,4.72,0,0,1-2.69-.75,3.61,3.61,0,0,1-1.5-2,10.5,10.5,0,0,1-.24-2.74Z"/><path class="cls-3" d="M200.71,100.77h2.59a14.73,14.73,0,0,1,3,.2,3.3,3.3,0,0,1,1.82,1.12,3.64,3.64,0,0,1,0,4.28,3.39,3.39,0,0,1-1.89,1.14,17,17,0,0,1-3.31.21H202v6h-1.3ZM202,102v4.41l2.19,0a5.84,5.84,0,0,0,2-.25,2,2,0,0,0,1-.78,2.22,2.22,0,0,0,.35-1.21,2.19,2.19,0,0,0-.35-1.2,2,2,0,0,0-.93-.77,5.72,5.72,0,0,0-1.9-.23Z"/><path class="cls-3" d="M220,100.77h1.3v11.74h5v1.25H220Z"/><path class="cls-3" d="M228.8,102v-1.27h7.12V102H233v11.72H231.7V102Z"/><path class="cls-3" d="M239.56,113.76v-13h2.7a13.71,13.71,0,0,1,4.22.47,5.66,5.66,0,0,1,3,2.3,6.93,6.93,0,0,1,1.06,3.89,6.84,6.84,0,0,1-.84,3.43,5.37,5.37,0,0,1-2.19,2.19,8.28,8.28,0,0,1-3.78.71Zm1.25-1.23h1.5a14.16,14.16,0,0,0,3.73-.33,4.31,4.31,0,0,0,2.31-1.72,5.29,5.29,0,0,0,.84-3,5.61,5.61,0,0,0-.91-3.21,4.58,4.58,0,0,0-2.54-1.83,15.6,15.6,0,0,0-4-.37h-.92Z"/><path class="cls-1" d="M169.73,29.1a98.54,98.54,0,0,0-139.83,0C49.49,17.35,73.66,10.4,99.81,10.4S150.14,17.35,169.73,29.1Z"/><polyline class="cls-4" points="121.95 41.5 110.88 41.5 104.98 36.7 99.81 36.7 94.65 36.7 88.75 41.5 77.68 41.5"/></svg>