<svg id="Layer_1" data-name="Layer 1" xmlns="http://www.w3.org/2000/svg" viewBox="0 0 277 142"><defs><style>.cls-1{fill:#fff;}.cls-2{fill:none;stroke:#fff;stroke-linecap:round;stroke-linejoin:bevel;stroke-width:6.45px;}</style></defs><title>global-logo-white</title><path class="cls-1" d="M50.85,61.48c5.8,0,9.12,3.31,9.12,9.11v30.65c0,13.26-5.8,19.05-19.06,19.05H16.31v-10.6h20c3.48,0,6.38-.41,7.46-4.31H31.47c-14.08,0-18.23-8.61-18.23-21.87s4.15-22,18.23-22ZM43.73,77.22c0-3.32-.83-4.15-4.14-4.15h-3c-6.13,0-6.79,5.14-6.79,10.44,0,4.23.75,10.27,6.46,10.27h7.46Z"/><path class="cls-1" d="M66.26,47.39H82.5v58H66.26Z"/><path class="cls-1" d="M138.34,83.43c0,18.22-7.13,22.45-25.36,22.45s-25.35-4.23-25.35-22.45S94.76,61,113,61,138.34,65.2,138.34,83.43ZM113,94.28c7.46,0,8.79-4.22,8.79-10.85S120.44,72.58,113,72.58s-8.78,4.22-8.78,10.85S105.53,94.28,113,94.28Z"/><path class="cls-1" d="M152.58,105.38c-5.8,0-9.11-3.31-9.11-9.11V47.39h16.24V61.48H172c14.08,0,18.22,8.69,18.22,22s-4.14,21.95-18.22,21.95Zm7.13-15.74c0,3.32.83,4.14,4.14,4.14h3c6.13,0,6.8-5,6.8-10.35,0-4.23-.75-10.36-6.47-10.36h-7.45Z"/><path class="cls-1" d="M226.31,61.48c9.12,0,14.91,5.79,14.91,14.91V96.27c0,5.8-3.31,9.11-9.11,9.11H204.94c-8.29,0-10.77-4.8-10.77-13.91,0-8.29,2.48-13.59,10.77-13.59H225v-.83c0-2.9-1.91-4.31-5-4.31H197.15V61.48ZM213.47,88.15a3.13,3.13,0,0,0-3.06,3.32,3,3,0,0,0,2.9,3.14h8.36c2.49,0,3.32-.83,3.32-3.31V88.15Z"/><path class="cls-1" d="M247.52,47.39h16.24v58H247.52Z"/><path class="cls-1" d="M66.26,116v-1.27h7.12V116h-2.9v11.72H69.16V116Z"/><path class="cls-1" d="M77.27,114.73h2.59a15.38,15.38,0,0,1,2.93.18A3.3,3.3,0,0,1,84.67,116a3.22,3.22,0,0,1,.73,2.15,3.5,3.5,0,0,1-.5,1.86,3.12,3.12,0,0,1-1.43,1.22,6.71,6.71,0,0,1-2.56.42l4.67,6H84l-4.67-6h-.74v6h-1.3Zm1.3,1.27v4.41l2.24,0a5.66,5.66,0,0,0,1.92-.24,2.07,2.07,0,0,0,1-.79,2.25,2.25,0,0,0,.35-1.22A2.11,2.11,0,0,0,83.7,117a1.93,1.93,0,0,0-.93-.76,5.71,5.71,0,0,0-1.91-.23Z"/><path class="cls-1" d="M94.71,114.73l6.06,13h-1.4l-2-4.28h-5.6l-2,4.28H88.26l6.14-13Zm-.16,2.76-2.23,4.7h4.45Z"/><path class="cls-1" d="M104.19,114.73h6.51V116h-5.21v4.07h5.21v1.27h-5.21v6.38h-1.3Z"/><path class="cls-1" d="M115,114.73h6.51V116H116.3v4.07h5.21v1.27H116.3v6.38H115Z"/><path class="cls-1" d="M125.54,114.73h1.3v13h-1.3Z"/><path class="cls-1" d="M143.14,117.14l-1,.79a5.54,5.54,0,0,0-2-1.68,5.94,5.94,0,0,0-2.61-.57,5.73,5.73,0,0,0-2.88.75,5.33,5.33,0,0,0-2.05,2,5.5,5.5,0,0,0-.73,2.83,5.3,5.3,0,0,0,1.63,4,5.63,5.63,0,0,0,4.11,1.59,5.78,5.78,0,0,0,4.56-2.14l1,.78a6.61,6.61,0,0,1-2.43,1.91,7.57,7.57,0,0,1-3.24.67,6.75,6.75,0,0,1-5.38-2.27,6.83,6.83,0,0,1-1.65-4.62,6.45,6.45,0,0,1,2-4.8,6.88,6.88,0,0,1,5-1.95,7.39,7.39,0,0,1,3.29.72A6.44,6.44,0,0,1,143.14,117.14Z"/><path class="cls-1" d="M166.82,116.91l-1,1a7.63,7.63,0,0,0-2.38-1.62,6.52,6.52,0,0,0-2.52-.55,6.06,6.06,0,0,0-2.91.75,5.46,5.46,0,0,0-2.14,2,5.29,5.29,0,0,0-.76,2.71,5.41,5.41,0,0,0,.79,2.79,5.54,5.54,0,0,0,2.17,2.07,6.21,6.21,0,0,0,3,.76,5.19,5.19,0,0,0,3.39-1.13,4.49,4.49,0,0,0,1.64-2.93H162v-1.26h5.6a6.51,6.51,0,0,1-1.79,4.78,6.41,6.41,0,0,1-4.74,1.77,7.13,7.13,0,0,1-5.7-2.45,6.52,6.52,0,0,1-1.62-4.37,6.75,6.75,0,0,1,3.47-5.92,7.41,7.41,0,0,1,3.66-.9,8.09,8.09,0,0,1,3.11.6A9.22,9.22,0,0,1,166.82,116.91Z"/><path class="cls-1" d="M171.36,114.73H174a15.38,15.38,0,0,1,2.93.18,3.22,3.22,0,0,1,2.6,3.28,3.41,3.41,0,0,1-.5,1.86,3.1,3.1,0,0,1-1.42,1.22,6.71,6.71,0,0,1-2.56.42l4.67,6h-1.61l-4.67-6h-.73v6h-1.3Zm1.3,1.27v4.41l2.24,0a5.74,5.74,0,0,0,1.92-.24,2,2,0,0,0,1-.79,2.25,2.25,0,0,0,0-2.41,2,2,0,0,0-.93-.76A5.71,5.71,0,0,0,175,116Z"/><path class="cls-1" d="M189.5,114.4a6.77,6.77,0,0,1,4.94,2A6.83,6.83,0,0,1,189.6,128a6.66,6.66,0,0,1-4.87-2,6.5,6.5,0,0,1-2-4.79,7,7,0,0,1,.9-3.47,6.72,6.72,0,0,1,5.86-3.41Zm.06,1.26a5.56,5.56,0,0,0-4.75,2.78,5.56,5.56,0,0,0-.73,2.84,5.46,5.46,0,0,0,5.48,5.5,5.51,5.51,0,0,0,2.79-.73,5.25,5.25,0,0,0,2-2,5.65,5.65,0,0,0,.72-2.83,5.47,5.47,0,0,0-.72-2.79,5.34,5.34,0,0,0-2-2A5.5,5.5,0,0,0,189.56,115.66Z"/><path class="cls-1" d="M200.39,114.73h1.3v7.84c0,.93,0,1.51.05,1.74a3,3,0,0,0,.45,1.28,2.63,2.63,0,0,0,1.09.87,3.44,3.44,0,0,0,1.47.35,2.81,2.81,0,0,0,1.24-.28,2.74,2.74,0,0,0,1-.76,3.06,3.06,0,0,0,.58-1.17,9.68,9.68,0,0,0,.13-2v-7.84H209v7.84a9.39,9.39,0,0,1-.34,2.81,3.77,3.77,0,0,1-1.36,1.87,3.89,3.89,0,0,1-2.47.79,4.74,4.74,0,0,1-2.69-.75,3.59,3.59,0,0,1-1.5-2,10.5,10.5,0,0,1-.24-2.74Z"/><path class="cls-1" d="M214,114.73h2.59a15,15,0,0,1,3,.19,3.37,3.37,0,0,1,1.82,1.13,3.62,3.62,0,0,1,0,4.28,3.47,3.47,0,0,1-1.9,1.14,16.93,16.93,0,0,1-3.3.21h-.93v6H214Zm1.3,1.27v4.41l2.2,0a5.78,5.78,0,0,0,2-.24,2,2,0,0,0,1-.78,2.17,2.17,0,0,0,.35-1.22,2.1,2.1,0,0,0-.35-1.19,2,2,0,0,0-.93-.77,5.72,5.72,0,0,0-1.9-.23Z"/><path class="cls-1" d="M233.21,114.73h1.3v11.73h5v1.26h-6.3Z"/><path class="cls-1" d="M242.05,116v-1.27h7.11V116h-2.89v11.72h-1.33V116Z"/><path class="cls-1" d="M252.81,127.72v-13h2.69a13.52,13.52,0,0,1,4.23.47,5.62,5.62,0,0,1,2.95,2.29,7,7,0,0,1,1.07,3.9,6.84,6.84,0,0,1-.85,3.43,5.37,5.37,0,0,1-2.19,2.19,8.24,8.24,0,0,1-3.77.71Zm1.24-1.23h1.5a13.71,13.71,0,0,0,3.74-.34,4.31,4.31,0,0,0,2.3-1.71,5.29,5.29,0,0,0,.84-3,5.51,5.51,0,0,0-.91-3.21,4.59,4.59,0,0,0-2.53-1.83,15.29,15.29,0,0,0-4-.37h-.92Z"/><path class="cls-1" d="M183,43.06a98.53,98.53,0,0,0-139.82,0c19.59-11.75,43.75-18.7,69.91-18.7S163.38,31.31,183,43.06Z"/><polyline class="cls-2" points="135.19 55.46 124.12 55.46 118.22 50.66 113.06 50.66 107.89 50.66 101.99 55.46 90.92 55.46"/></svg>