<svg id="Layer_1" data-name="Layer 1" xmlns="http://www.w3.org/2000/svg" xmlns:xlink="http://www.w3.org/1999/xlink" viewBox="0 0 1185.12 490.12"><defs><style>.cls-1{fill:#b2a286;}.cls-2{fill:none;stroke:#2a681b;stroke-miterlimit:10;stroke-width:0.5px;}.cls-3{fill:#ddcdb1;}.cls-17,.cls-4{fill:#3a7726;}.cls-13,.cls-4,.cls-5{opacity:0.6;}.cls-14,.cls-5{fill:#005256;}.cls-6{fill:#3a262c;}.cls-7{fill:#fff;}.cls-8{fill:#993c4e;}.cls-9{fill:#87bbd8;}.cls-10,.cls-12{fill:#003f3f;}.cls-10,.cls-11{opacity:0.25;}.cls-15{fill:#0c0805;}.cls-16{opacity:0.4;}</style><symbol id="New_Symbol" data-name="New Symbol" viewBox="0 0 0.5 4.92"><line class="cls-2" x1="0.25" x2="0.25" y2="4.91"/></symbol><symbol id="New_Symbol_1" data-name="New Symbol 1" viewBox="0 0 14 5"><ellipse class="cls-1" cx="7" cy="2.5" rx="7" ry="2.5"/></symbol><symbol id="New_Symbol_2" data-name="New Symbol 2" viewBox="0 0 10 2"><ellipse class="cls-3" cx="5" cy="1" rx="5" ry="1"/></symbol></defs><title>intersection-vector</title><path class="cls-4" d="M38.76,245.19c31-2,313.13,1.89,343.78,1.89,20.31,0,51.38,3.16,45.22,5.11-22.61,7.15-259.67,18-271,28-13.54,12,19.56,22.91,64.11,47.66,34.28,19,17.89,72.34-181.11,129.34"/><path class="cls-5" d="M45.76,260.19c52-5,255-14,293-16s154-3,137-3,470.14-2.67,525.14-.67c22.9.84,61.71-22.52,33.32-45.34-10.64-8.55,2.77-57.38-25.92-59.23-52.84-3.41-48.12,38.87-91.19,19.25-27.08-12.33-46.31-29.46-52.35-32-19-8-53,14-71,27s-34,31-65,8-63-32-65-17-21,22-45,4-47-35-56,5,10,70-20,64-36,16-56,6-2-12-28-18-32,6-39,11-34,17-60,13-63-2-98-5-77,6-91-1-27-18-38-24-54-25-71-22-24,2-24,2"/><path class="cls-4" d="M1157.23,362.39c-44.27,2.55-357.16-34.91-474.65-81.73-60.8-24.24,463.9-23.13,479.9-24.13"/><rect class="cls-6" x="785.13" y="232.55" width="3.39" height="33.93"/><polygon class="cls-7" points="796.11 199.41 776.99 199.41 767.43 215.97 776.99 232.53 796.11 232.53 805.68 215.97 796.11 199.41"/><path class="cls-8" d="M788.91,213.54c-1,0-1.45.78-1.45,2.33a3.21,3.21,0,0,0,.37,1.72,1.17,1.17,0,0,0,1,.59,1.3,1.3,0,0,0,1-.51,3,3,0,0,0,.42-1.83,3.46,3.46,0,0,0-.35-1.69A1.15,1.15,0,0,0,788.91,213.54Z"/><path class="cls-8" d="M778.05,200.39l-8.78,15.2,8.78,15.21h17.56l8.77-15.21-8.77-15.2Zm2.45,18.16a2.87,2.87,0,0,1-1.8.53,3.32,3.32,0,0,1-1.64-.39,1.9,1.9,0,0,1-.92-1.21l1.09-.24c.13.62.64.94,1.52.94a1.53,1.53,0,0,0,.92-.24.71.71,0,0,0,.32-.6.89.89,0,0,0-.14-.47,1,1,0,0,0-.63-.34l-1.2-.31a3,3,0,0,1-.91-.37,1.49,1.49,0,0,1-.47-.57,1.83,1.83,0,0,1-.17-.8,1.61,1.61,0,0,1,.62-1.34,2.45,2.45,0,0,1,1.6-.51,3,3,0,0,1,1.44.35,1.63,1.63,0,0,1,.81,1l-1.07.27a1.09,1.09,0,0,0-1.16-.71,1.28,1.28,0,0,0-.81.22.68.68,0,0,0-.27.56c0,.35.29.61.87.75l1.06.27a2.18,2.18,0,0,1,1.3.71,1.81,1.81,0,0,1,.33,1A1.72,1.72,0,0,1,780.5,218.55Zm5.51-4.86h-1.66V219h-1.21v-5.3h-1.67v-1H786Zm4.82,4.5a2.38,2.38,0,0,1-2,.89,2.3,2.3,0,0,1-2-.93,3.81,3.81,0,0,1-.69-2.31,3.48,3.48,0,0,1,.74-2.29,2.38,2.38,0,0,1,1.95-.92,2.33,2.33,0,0,1,1.93.92,3.66,3.66,0,0,1,.7,2.3A3.54,3.54,0,0,1,790.83,218.19Zm6.51-3.61a1.82,1.82,0,0,1-.58,1.39,2,2,0,0,1-1.45.54h-1.57V219h-1.13v-6.27h2.57a2.14,2.14,0,0,1,1.62.56A1.8,1.8,0,0,1,797.34,214.58Z"/><path class="cls-8" d="M793.74,213.66v1.88h1.34a1.15,1.15,0,0,0,.8-.26.9.9,0,0,0,.27-.68.92.92,0,0,0-.25-.66,1.21,1.21,0,0,0-.92-.28Z"/><path class="cls-8" d="M796.26,198.19H777.4a1.08,1.08,0,0,0-.93.54L767,215.06a1.08,1.08,0,0,0,0,1.07l9.43,16.33a1.08,1.08,0,0,0,.93.54h18.86a1.08,1.08,0,0,0,.93-.54l9.42-16.33a1,1,0,0,0,0-1.07l-9.42-16.33A1.08,1.08,0,0,0,796.26,198.19Zm-.12,32.46a1.07,1.07,0,0,1-.93.54H777.83l-.06-.1-8.95-15.5.06-.09,8.64-15a1.07,1.07,0,0,1,.93-.54h17.38l.06.1,9,15.49-.06.1Z"/><rect class="cls-8" x="775.32" y="211.27" width="23.03" height="9.77"/><path class="cls-7" d="M772.92,217.7l1.4-.3c.17.79.81,1.19,1.93,1.19a1.91,1.91,0,0,0,1.18-.31.89.89,0,0,0,.42-.75,1.12,1.12,0,0,0-.19-.61,1.36,1.36,0,0,0-.8-.44l-1.53-.39a3.87,3.87,0,0,1-1.16-.47,1.79,1.79,0,0,1-.6-.74,2.3,2.3,0,0,1-.23-1,2.12,2.12,0,0,1,.8-1.72,3.14,3.14,0,0,1,2-.65A3.74,3.74,0,0,1,778,212a2,2,0,0,1,1,1.28l-1.37.34a1.38,1.38,0,0,0-1.47-.91,1.66,1.66,0,0,0-1,.28.88.88,0,0,0-.36.72c0,.46.37.78,1.12,1l1.36.34a2.74,2.74,0,0,1,1.65.92,2.23,2.23,0,0,1,.43,1.34,2.21,2.21,0,0,1-.89,1.85,3.7,3.7,0,0,1-2.3.68,4.21,4.21,0,0,1-2.08-.5A2.41,2.41,0,0,1,772.92,217.7Z"/><path class="cls-7" d="M783.41,219.62h-1.55v-6.76h-2.13v-1.23h5.8v1.23h-2.12Z"/><path class="cls-7" d="M789.19,219.75a2.91,2.91,0,0,1-2.48-1.2,4.83,4.83,0,0,1-.89-3,4.54,4.54,0,0,1,.94-2.92,3,3,0,0,1,2.5-1.18,2.93,2.93,0,0,1,2.46,1.18,4.68,4.68,0,0,1,.9,2.94,4.54,4.54,0,0,1-.94,3A3,3,0,0,1,789.19,219.75Zm0-1.16a1.67,1.67,0,0,0,1.32-.65,3.75,3.75,0,0,0,.54-2.34,4.33,4.33,0,0,0-.45-2.15,1.46,1.46,0,0,0-1.38-.79c-1.23,0-1.85,1-1.85,3a4.19,4.19,0,0,0,.47,2.19A1.52,1.52,0,0,0,789.2,218.59Z"/><path class="cls-7" d="M795.41,219.62H794v-8h3.27a2.75,2.75,0,0,1,2.08.7A2.34,2.34,0,0,1,800,214a2.29,2.29,0,0,1-.74,1.77,2.58,2.58,0,0,1-1.85.68h-2Zm0-4.4h1.7a1.42,1.42,0,0,0,1-.33,1.12,1.12,0,0,0,.35-.87,1.2,1.2,0,0,0-.32-.85,1.6,1.6,0,0,0-1.18-.35h-1.57Z"/><use width="0.5" height="4.91" transform="translate(93.6 373.9) scale(1.89)" xlink:href="#New_Symbol"/><use width="0.5" height="4.91" transform="translate(120.43 363.68) scale(1.72)" xlink:href="#New_Symbol"/><use width="0.5" height="4.91" transform="translate(113.93 366.53) scale(1.77)" xlink:href="#New_Symbol"/><use width="0.5" height="4.91" transform="translate(119.29 368) scale(1.78)" xlink:href="#New_Symbol"/><use width="0.5" height="4.91" transform="translate(132.22 368.9) scale(1.79)" xlink:href="#New_Symbol"/><use width="0.5" height="4.91" transform="translate(138.2 369.2) scale(1.82)" xlink:href="#New_Symbol"/><use width="0.5" height="4.91" transform="translate(144.53 370.39) scale(1.84)" xlink:href="#New_Symbol"/><use width="0.5" height="4.91" transform="translate(149.82 371.27) scale(1.81)" xlink:href="#New_Symbol"/><use width="0.5" height="4.91" transform="translate(104.14 318.76) scale(1.24)" xlink:href="#New_Symbol"/><use width="0.5" height="4.91" transform="translate(107.51 321.45) scale(1.28)" xlink:href="#New_Symbol"/><use width="0.5" height="4.91" transform="translate(112.56 320.94) scale(1.3)" xlink:href="#New_Symbol"/><use width="0.5" height="4.91" transform="translate(117.72 324.52) scale(1.36)" xlink:href="#New_Symbol"/><use width="0.5" height="4.91" transform="translate(125.05 324.93) scale(1.39)" xlink:href="#New_Symbol"/><use width="0.5" height="4.91" transform="translate(125.53 327.23) scale(1.42)" xlink:href="#New_Symbol"/><use width="0.5" height="4.91" transform="translate(193.42 344.06) scale(1.33)" xlink:href="#New_Symbol"/><use width="0.5" height="4.91" transform="translate(203.98 350.11) scale(1.26)" xlink:href="#New_Symbol"/><use width="0.5" height="4.91" transform="translate(214.41 349.03) scale(1.17)" xlink:href="#New_Symbol"/><use width="0.5" height="4.91" transform="translate(217.19 345.91) scale(1.14)" xlink:href="#New_Symbol"/><use width="0.5" height="4.91" transform="translate(138.57 356.25) scale(1.76)" xlink:href="#New_Symbol"/><use width="0.5" height="4.91" transform="translate(131.38 359.2) scale(1.73)" xlink:href="#New_Symbol"/><use width="0.5" height="4.91" transform="translate(117.03 361.99) scale(1.69)" xlink:href="#New_Symbol"/><use width="0.5" height="4.91" transform="translate(139.18 392.09) scale(1.73)" xlink:href="#New_Symbol"/><use width="0.5" height="4.91" transform="translate(114.27 400.35) scale(2.04)" xlink:href="#New_Symbol"/><use width="0.5" height="4.91" transform="translate(107.57 406.36) scale(2.12)" xlink:href="#New_Symbol"/><use width="0.5" height="4.91" transform="translate(112.67 408.23) scale(2.06)" xlink:href="#New_Symbol"/><use width="0.5" height="4.91" transform="translate(134.12 306.79) scale(1.26)" xlink:href="#New_Symbol"/><use width="0.5" height="4.91" transform="translate(107.11 308.81) scale(1.19)" xlink:href="#New_Symbol"/><use width="0.5" height="4.91" transform="translate(104.9 308.98) scale(1.18)" xlink:href="#New_Symbol"/><use width="0.5" height="4.91" transform="translate(102.29 308.97) scale(1.17)" xlink:href="#New_Symbol"/><use width="0.5" height="4.91" transform="translate(82.54 312.35) scale(1.08)" xlink:href="#New_Symbol"/><use width="0.5" height="4.91" transform="translate(82.21 314.89) scale(1.09)" xlink:href="#New_Symbol"/><use width="0.5" height="4.91" transform="translate(79.53 315.49) scale(1.08)" xlink:href="#New_Symbol"/><use width="0.5" height="4.91" transform="translate(182.7 348.03) scale(1.43)" xlink:href="#New_Symbol"/><use width="0.5" height="4.91" transform="translate(195.95 347.66) scale(1.32)" xlink:href="#New_Symbol"/><use width="0.5" height="4.91" transform="translate(197.61 348.69) scale(1.31)" xlink:href="#New_Symbol"/><use width="0.5" height="4.91" transform="translate(192.59 351.31) scale(1.36)" xlink:href="#New_Symbol"/><use width="0.5" height="4.91" transform="translate(200.36 352.92) scale(1.29)" xlink:href="#New_Symbol"/><use width="0.5" height="4.91" transform="translate(203.45 353.22) scale(1.27)" xlink:href="#New_Symbol"/><use width="0.5" height="4.91" transform="translate(164.55 383.31) scale(1.59)" xlink:href="#New_Symbol"/><use width="0.5" height="4.91" transform="translate(135.42 385.95) scale(1.79)" xlink:href="#New_Symbol"/><use width="0.5" height="4.91" transform="translate(90.96 392.12) scale(2.15)" xlink:href="#New_Symbol"/><use width="0.5" height="4.91" transform="translate(71.45 397.56) scale(2.23)" xlink:href="#New_Symbol"/><use width="0.5" height="4.91" transform="translate(93.84 342.13) scale(1.32)" xlink:href="#New_Symbol"/><use width="0.5" height="4.91" transform="translate(62.44 344.66) scale(1.18)" xlink:href="#New_Symbol"/><use width="0.5" height="4.91" transform="translate(134.71 267.2) scale(0.98)" xlink:href="#New_Symbol"/><use width="0.5" height="4.91" transform="translate(180.52 267.7) scale(0.98)" xlink:href="#New_Symbol"/><use width="0.5" height="4.91" transform="translate(197.91 265.66) scale(0.98)" xlink:href="#New_Symbol"/><use width="0.5" height="4.91" transform="translate(78.27 345.82) scale(1.3)" xlink:href="#New_Symbol"/><use width="0.5" height="4.91" transform="translate(50.4 350.3) scale(1.17)" xlink:href="#New_Symbol"/><use width="0.5" height="4.91" transform="translate(41.13 352.58) scale(1.16)" xlink:href="#New_Symbol"/><use width="0.5" height="4.91" transform="translate(96.58 403.83) scale(2.23)" xlink:href="#New_Symbol"/><use width="0.5" height="4.91" transform="translate(72.4 416.06) scale(2.47)" xlink:href="#New_Symbol"/><use width="0.5" height="4.91" transform="translate(63.96 416.06) scale(2.49)" xlink:href="#New_Symbol"/><use width="0.5" height="4.91" transform="translate(91.89 418.38) scale(2.31)" xlink:href="#New_Symbol"/><use width="0.5" height="4.91" transform="translate(59.49 435.11) scale(2.68)" xlink:href="#New_Symbol"/><use width="0.5" height="4.91" transform="translate(75.07 409.8) scale(2.41)" xlink:href="#New_Symbol"/><use width="0.5" height="4.91" transform="translate(108.23 380.94) scale(1.97)" xlink:href="#New_Symbol"/><use width="0.5" height="4.91" transform="translate(67.69 382.31) scale(1.92)" xlink:href="#New_Symbol"/><use width="0.5" height="4.91" transform="translate(45.64 379.01) scale(1.59)" xlink:href="#New_Symbol"/><use width="0.5" height="4.91" transform="translate(83.9 361.81) scale(1.63)" xlink:href="#New_Symbol"/><use width="0.5" height="4.91" transform="translate(66.39 361.51) scale(1.51)" xlink:href="#New_Symbol"/><use width="0.5" height="4.91" transform="translate(77.63 361.02) scale(1.59)" xlink:href="#New_Symbol"/><use width="0.5" height="4.91" transform="translate(1016.67 289.37) scale(0.89 0.64)" xlink:href="#New_Symbol"/><use width="0.5" height="4.91" transform="translate(967.84 296.32) scale(1.05 0.76)" xlink:href="#New_Symbol"/><use width="0.5" height="4.91" transform="translate(959.52 297.31) scale(1.09 0.79)" xlink:href="#New_Symbol"/><use width="0.5" height="4.91" transform="translate(1007.7 296.63) scale(0.9 0.65)" xlink:href="#New_Symbol"/><use width="0.5" height="4.91" transform="translate(1023.23 297.4) scale(0.89 0.64)" xlink:href="#New_Symbol"/><use width="0.5" height="4.91" transform="translate(1027.64 295.52) scale(0.89 0.64)" xlink:href="#New_Symbol"/><use width="0.5" height="4.91" transform="translate(921.85 292.52) scale(1.29 0.93)" xlink:href="#New_Symbol"/><use width="0.5" height="4.91" transform="translate(911.6 291.57) scale(1.25 0.9)" xlink:href="#New_Symbol"/><use width="0.5" height="4.91" transform="translate(894.56 294.49) scale(1.2 0.86)" xlink:href="#New_Symbol"/><use width="0.5" height="4.91" transform="translate(903.42 296.5) scale(1.23 0.89)" xlink:href="#New_Symbol"/><use width="0.5" height="4.91" transform="translate(900.8 289.95) scale(1.18 0.86)" xlink:href="#New_Symbol"/><use width="0.5" height="4.91" transform="translate(836.45 282.54) scale(1.03 0.74)" xlink:href="#New_Symbol"/><use width="0.5" height="4.91" transform="translate(874.02 284.46) scale(1.07 0.77)" xlink:href="#New_Symbol"/><use width="0.5" height="4.91" transform="translate(746.09 281.84) scale(0.94 0.68)" xlink:href="#New_Symbol"/><use width="0.5" height="4.91" transform="translate(725.65 278.09) scale(0.89 0.64)" xlink:href="#New_Symbol"/><use width="0.5" height="4.91" transform="translate(783.92 276.25) scale(0.99 0.71)" xlink:href="#New_Symbol"/><use width="0.5" height="4.91" transform="translate(716.14 277.75) scale(0.89 0.64)" xlink:href="#New_Symbol"/><use width="0.5" height="4.91" transform="translate(736.37 277.56) scale(0.92 0.66)" xlink:href="#New_Symbol"/><use width="0.5" height="4.91" transform="translate(714.35 268.82) scale(0.89 0.64)" xlink:href="#New_Symbol"/><use width="0.5" height="4.91" transform="translate(707.76 266.07) scale(0.89 0.64)" xlink:href="#New_Symbol"/><use width="0.5" height="4.91" transform="translate(744.08 264.44) scale(0.91 0.66)" xlink:href="#New_Symbol"/><use width="0.5" height="4.91" transform="translate(863.25 265.03) scale(0.99 0.72)" xlink:href="#New_Symbol"/><use width="0.5" height="4.91" transform="translate(902.58 261.19) scale(1.11 0.8)" xlink:href="#New_Symbol"/><use width="0.5" height="4.91" transform="translate(908.07 262.15) scale(1.13 0.82)" xlink:href="#New_Symbol"/><use width="0.5" height="4.91" transform="translate(900.59 267.62) scale(1.08 0.78)" xlink:href="#New_Symbol"/><use width="0.5" height="4.91" transform="translate(757.05 272.1) scale(0.96 0.69)" xlink:href="#New_Symbol"/><use width="0.5" height="4.91" transform="translate(732.95 272.73) scale(0.9 0.65)" xlink:href="#New_Symbol"/><use width="0.5" height="4.91" transform="translate(836.27 271.86) scale(0.99 0.72)" xlink:href="#New_Symbol"/><use width="0.5" height="4.91" transform="translate(913.44 273.98) scale(1.21 0.87)" xlink:href="#New_Symbol"/><use width="0.5" height="4.91" transform="translate(924.7 272.48) scale(1.27 0.92)" xlink:href="#New_Symbol"/><use width="0.5" height="4.91" transform="translate(759.93 279.59) scale(0.97 0.7)" xlink:href="#New_Symbol"/><use width="0.5" height="4.91" transform="translate(877.9 281.02) scale(1.05 0.76)" xlink:href="#New_Symbol"/><use width="0.5" height="4.91" transform="translate(894.74 283.01) scale(1.11 0.8)" xlink:href="#New_Symbol"/><use width="0.5" height="4.91" transform="translate(825.15 286.23) scale(1.03 0.74)" xlink:href="#New_Symbol"/><use width="0.5" height="4.91" transform="translate(835.37 288.26) scale(1.03 0.75)" xlink:href="#New_Symbol"/><use width="0.5" height="4.91" transform="translate(855.86 287.03) scale(1.06 0.76)" xlink:href="#New_Symbol"/><use width="0.5" height="4.91" transform="translate(769.94 285.71) scale(0.97 0.7)" xlink:href="#New_Symbol"/><use width="0.5" height="4.91" transform="translate(747.33 277.1) scale(0.94 0.68)" xlink:href="#New_Symbol"/><use width="0.5" height="4.91" transform="translate(800.64 276.68) scale(1 0.72)" xlink:href="#New_Symbol"/><use width="0.5" height="4.91" transform="translate(894.74 274.5) scale(1.07 0.77)" xlink:href="#New_Symbol"/><use width="0.5" height="4.91" transform="translate(887.19 273.87) scale(1.05 0.76)" xlink:href="#New_Symbol"/><use width="0.5" height="4.91" transform="translate(738.19 267.43) scale(0.91 0.66)" xlink:href="#New_Symbol"/><use width="0.5" height="4.91" transform="translate(810.35 269.54) scale(0.97 0.7)" xlink:href="#New_Symbol"/><use width="0.5" height="4.91" transform="translate(917.76 262.42) scale(1.19 0.86)" xlink:href="#New_Symbol"/><use width="0.5" height="4.91" transform="translate(957.46 264.45) scale(1.1 0.79)" xlink:href="#New_Symbol"/><use width="0.5" height="4.91" transform="translate(909.16 279.61) scale(1.18 0.85)" xlink:href="#New_Symbol"/><use width="0.5" height="4.91" transform="translate(924.15 278.64) scale(1.29 0.93)" xlink:href="#New_Symbol"/><use width="0.5" height="4.91" transform="translate(944.1 276.58) scale(1.24 0.9)" xlink:href="#New_Symbol"/><use width="0.5" height="4.91" transform="translate(946.32 280.89) scale(1.22 0.88)" xlink:href="#New_Symbol"/><use width="0.5" height="4.91" transform="translate(927.94 288.63) scale(1.3 0.94)" xlink:href="#New_Symbol"/><use width="0.5" height="4.91" transform="translate(942.2 291.59) scale(1.22 0.88)" xlink:href="#New_Symbol"/><use width="14" height="5" transform="translate(354.62 309) scale(0.32 0.23)"/><use width="14" height="5" transform="translate(366.51 309.25) scale(0.19 0.13)"/><use width="14" height="5" transform="translate(375.48 309.71) scale(0.11 0.08)"/><use width="14" height="5" transform="translate(379.58 310.51) scale(0.09 0.06)"/><use width="14" height="5" transform="translate(324.89 300.92) scale(0.42 0.3)"/><use width="14" height="5" transform="translate(312.49 300.42) scale(0.43 0.3)"/><use width="14" height="5" transform="translate(331.37 304.62) scale(0.4 0.28)"/><use width="14" height="5" transform="translate(382.17 302.86) scale(0.11 0.08)"/><use width="14" height="5" transform="translate(392.29 303.88) scale(0.06 0.04)"/><use width="14" height="5" transform="translate(398.47 303.03) scale(0.05 0.04)"/><use width="14" height="5" transform="translate(403.75 303.14) scale(0.05 0.04)"/><use width="14" height="5" transform="translate(404.6 298.75) scale(0.08 0.06)"/><use width="14" height="5" transform="translate(397.76 300.35) scale(0.07 0.05)"/><use width="14" height="5" transform="translate(374.18 316.14) scale(0.12 0.08)"/><use width="14" height="5" transform="translate(352.12 317.53) scale(0.28 0.2)"/><use width="14" height="5" transform="translate(424.53 322.25) scale(0.13 0.1)" xlink:href="#New_Symbol_1"/><use width="14" height="5" transform="translate(230.64 324.63) scale(0.28 0.2)"/><use width="14" height="5" transform="translate(342.63 328.7) scale(0.29 0.2)"/><use width="14" height="5" transform="translate(371.64 334.56) scale(0.31 0.22)"/><use width="14" height="5" transform="translate(287.17 334.67) scale(0.15 0.11)"/><use width="14" height="5" transform="translate(383.87 343.73) scale(0.4 0.28)"/><use width="14" height="5" transform="translate(251.23 343.82) scale(0.31 0.22)"/><use width="14" height="5" transform="translate(354.03 350.6) scale(0.4 0.28)"/><use width="14" height="5" transform="translate(282.25 349.91) scale(0.35 0.24)"/><use width="14" height="5" transform="translate(318.77 350.02) scale(0.42 0.3)"/><use width="14" height="5" transform="translate(421.16 294.45) scale(0.19 0.13)" xlink:href="#New_Symbol_1"/><use width="14" height="5" transform="translate(431.59 289.78) scale(0.39 0.27)"/><use width="14" height="5" transform="translate(432.83 293.47) scale(0.36 0.26)"/><use width="14" height="5" transform="translate(425.55 292.66) scale(0.28 0.2)" xlink:href="#New_Symbol_1"/><use width="14" height="5" transform="translate(431.58 297.22) scale(0.27 0.19)" xlink:href="#New_Symbol_1"/><use width="14" height="5" transform="translate(442.73 293.68) scale(0.36 0.25)"/><use width="14" height="5" transform="translate(440.64 296.99) scale(0.35 0.25)"/><use width="14" height="5" transform="translate(460.76 295.97) scale(0.29 0.2)"/><use width="14" height="5" transform="translate(427.61 300.05) scale(0.18 0.12)" xlink:href="#New_Symbol_1"/><use width="14" height="5" transform="translate(483.2 297.5) scale(0.25 0.18)"/><use width="14" height="5" transform="translate(495.68 299.06) scale(0.26 0.19)"/><use width="14" height="5" transform="translate(428.34 302.72) scale(0.16 0.11)" xlink:href="#New_Symbol_1"/><use width="14" height="5" transform="translate(447.3 302.59) scale(0.31 0.22)"/><use width="14" height="5" transform="translate(418.82 308.35) scale(0.07 0.05)"/><use width="14" height="5" transform="translate(433.58 310.06) scale(0.18 0.13)"/><use width="14" height="5" transform="translate(402.35 316.36) scale(0.04 0.03)"/><use width="14" height="5" transform="translate(459.24 314.02) scale(0.3 0.21)" xlink:href="#New_Symbol_1"/><use width="14" height="5" transform="translate(203.15 317.49) scale(0.37 0.26)"/><use width="14" height="5" transform="translate(419.7 324.97) scale(0.13 0.09)" xlink:href="#New_Symbol_1"/><use width="14" height="5" transform="translate(338.69 332.61) scale(0.31 0.22)"/><use width="14" height="5" transform="translate(455.34 342.57) scale(0.41 0.29)" xlink:href="#New_Symbol_1"/><use width="14" height="5" transform="translate(344.44 346.65) scale(0.38 0.27)"/><use width="14" height="5" transform="translate(316.77 308.52) scale(0.4 0.28)"/><use width="14" height="5" transform="translate(327.68 313.93) scale(0.36 0.26)"/><use width="14" height="5" transform="translate(310.66 310.92) scale(0.35 0.25)"/><use width="14" height="5" transform="translate(268.87 313.93) scale(0.13 0.09)"/><use width="14" height="5" transform="translate(309.53 316.87) scale(0.29 0.21)"/><use width="14" height="5" transform="translate(214.69 306.64) scale(0.39 0.27)"/><use width="14" height="5" transform="translate(333.02 315.57) scale(0.34 0.24)"/><use width="14" height="5" transform="translate(333.29 318.29) scale(0.33 0.23)"/><use width="14" height="5" transform="translate(218.29 310.27) scale(0.37 0.26)"/><use width="14" height="5" transform="translate(201.23 310.51) scale(0.38 0.27)"/><use width="14" height="5" transform="translate(186.59 309.95) scale(0.31 0.22)"/><use width="14" height="5" transform="translate(197.1 307.51) scale(0.38 0.27)"/><use width="14" height="5" transform="translate(185.5 306.51) scale(0.32 0.23)"/><use width="14" height="5" transform="translate(226.23 315.1) scale(0.31 0.22)"/><use width="14" height="5" transform="translate(178.52 307.21) scale(0.29 0.2)"/><use width="14" height="5" transform="translate(171.62 309.53) scale(0.25 0.18)" xlink:href="#New_Symbol_1"/><use width="14" height="5" transform="translate(172.12 311.13) scale(0.24 0.17)" xlink:href="#New_Symbol_1"/><use width="14" height="5" transform="translate(170.05 312.98) scale(0.23 0.16)" xlink:href="#New_Symbol_1"/><use width="14" height="5" transform="translate(165.8 316.38) scale(0.21 0.15)" xlink:href="#New_Symbol_1"/><use width="14" height="5" transform="translate(380.59 323.23) scale(0.11 0.08)"/><use width="14" height="5" transform="translate(433.97 318.59) scale(0.22 0.15)" xlink:href="#New_Symbol_1"/><use width="14" height="5" transform="translate(429.32 323.77) scale(0.2 0.14)" xlink:href="#New_Symbol_1"/><use width="14" height="5" transform="translate(358.72 326.24) scale(0.25 0.18)"/><use width="14" height="5" transform="translate(363.9 326.07) scale(0.25 0.17)"/><use width="14" height="5" transform="translate(166.88 318.15) scale(0.21 0.15)" xlink:href="#New_Symbol_1"/><use width="14" height="5" transform="translate(337.03 326.91) scale(0.3 0.21)"/><use width="14" height="5" transform="translate(314.48 328.08) scale(0.31 0.22)" xlink:href="#New_Symbol_1"/><use width="14" height="5" transform="translate(498.94 287.19) scale(0.33 0.23)"/><use width="14" height="5" transform="translate(555.61 287.25) scale(0.37 0.26)" xlink:href="#New_Symbol_1"/><use width="14" height="5" transform="translate(601.82 287.42) scale(0.43 0.3)" xlink:href="#New_Symbol_1"/><use width="14" height="5" transform="translate(514.38 289.59) scale(0.32 0.22)" xlink:href="#New_Symbol_1"/><use width="14" height="5" transform="translate(529.91 288.1) scale(0.32 0.23)" xlink:href="#New_Symbol_1"/><use width="14" height="5" transform="translate(469.82 292.44) scale(0.29 0.2)"/><use width="14" height="5" transform="translate(530.58 291.81) scale(0.31 0.22)" xlink:href="#New_Symbol_1"/><use width="14" height="5" transform="translate(664.82 287.66) scale(0.43 0.3)" xlink:href="#New_Symbol_1"/><use width="14" height="5" transform="translate(582.27 290.15) scale(0.43 0.3)" xlink:href="#New_Symbol_1"/><use width="14" height="5" transform="translate(682.46 287.74) scale(0.43 0.3)" xlink:href="#New_Symbol_1"/><use width="14" height="5" transform="translate(520.44 349.68) scale(0.43 0.3)" xlink:href="#New_Symbol_1"/><use width="14" height="5" transform="translate(599.18 346.25) scale(0.43 0.3)" xlink:href="#New_Symbol_1"/><use width="14" height="5" transform="translate(639.82 343.25) scale(0.43 0.3)" xlink:href="#New_Symbol_1"/><use width="14" height="5" transform="translate(631.12 342.39) scale(0.43 0.3)" xlink:href="#New_Symbol_1"/><use width="14" height="5" transform="translate(436.76 342.7) scale(0.38 0.27)" xlink:href="#New_Symbol_1"/><use width="14" height="5" transform="translate(447.72 342.64) scale(0.4 0.28)" xlink:href="#New_Symbol_1"/><use width="14" height="5" transform="translate(697.4 344.99) scale(0.43 0.3)" xlink:href="#New_Symbol_1"/><use width="14" height="5" transform="translate(631.18 347.38) scale(0.43 0.3)" xlink:href="#New_Symbol_1"/><use width="14" height="5" transform="translate(487.16 344.11) scale(0.43 0.3)" xlink:href="#New_Symbol_1"/><use width="14" height="5" transform="translate(607.33 334.56) scale(0.43 0.3)" xlink:href="#New_Symbol_1"/><use width="14" height="5" transform="translate(542.82 331.56) scale(0.43 0.3)" xlink:href="#New_Symbol_1"/><use width="14" height="5" transform="translate(497.1 328.32) scale(0.41 0.29)" xlink:href="#New_Symbol_1"/><use width="14" height="5" transform="translate(649.78 326.05) scale(0.43 0.3)" xlink:href="#New_Symbol_1"/><use width="14" height="5" transform="translate(605.49 328.76) scale(0.43 0.3)" xlink:href="#New_Symbol_1"/><use width="14" height="5" transform="translate(582.71 330.82) scale(0.43 0.3)" xlink:href="#New_Symbol_1"/><use width="14" height="5" transform="translate(699.61 327.37) scale(0.43 0.3)" xlink:href="#New_Symbol_1"/><use width="14" height="5" transform="translate(657.29 335.13) scale(0.43 0.3)" xlink:href="#New_Symbol_1"/><use width="14" height="5" transform="translate(630.69 334.5) scale(0.43 0.3)" xlink:href="#New_Symbol_1"/><use width="14" height="5" transform="translate(738.42 345.13) scale(0.43 0.3)" xlink:href="#New_Symbol_1"/><use width="14" height="5" transform="translate(388.46 429.82) scale(0.43 0.3)" xlink:href="#New_Symbol_1"/><use width="14" height="5" transform="translate(500.57 430.19) scale(0.43 0.3)" xlink:href="#New_Symbol_1"/><use width="14" height="5" transform="translate(556.96 430.38) scale(0.43 0.3)" xlink:href="#New_Symbol_1"/><use width="14" height="5" transform="translate(576.13 430.54) scale(0.43 0.3)" xlink:href="#New_Symbol_1"/><use width="14" height="5" transform="translate(585.25 430.44) scale(0.43 0.3)" xlink:href="#New_Symbol_1"/><use width="14" height="5" transform="translate(730.42 390.89) scale(0.34 0.31)"/><use width="14" height="5" transform="translate(849.52 381.03) scale(0.55 0.5)"/><use width="14" height="5" transform="translate(754.23 387.55) scale(0.37 0.34)"/><use width="14" height="5" transform="translate(673.7 387.01) scale(0.22 0.2)"/><use width="14" height="5" transform="translate(828.37 391.29) scale(0.54 0.49)"/><use width="14" height="5" transform="translate(923.59 390.8) scale(0.29 0.27)" xlink:href="#New_Symbol_1"/><use width="14" height="5" transform="translate(791.62 396.59) scale(0.45 0.41)"/><use width="14" height="5" transform="translate(620.35 394.2) scale(0.56 0.51)"/><use width="14" height="5" transform="translate(949.58 404.99) scale(0.34 0.31)" xlink:href="#New_Symbol_1"/><use width="14" height="5" transform="translate(970.24 407.15) scale(0.4 0.37)" xlink:href="#New_Symbol_1"/><use width="14" height="5" transform="translate(963.49 411.62) scale(0.45 0.41)" xlink:href="#New_Symbol_1"/><use width="14" height="5" transform="translate(1070.68 407.61) scale(0.35 0.32)" xlink:href="#New_Symbol_1"/><use width="14" height="5" transform="translate(1091.23 408.77) scale(0.39 0.36)" xlink:href="#New_Symbol_1"/><use width="14" height="5" transform="translate(774.58 444.71) scale(0.55 0.5)"/><use width="14" height="5" transform="translate(998.5 433.29) scale(0.67 0.61)" xlink:href="#New_Symbol_1"/><use width="14" height="5" transform="translate(1019.93 434.43) scale(0.63 0.58)" xlink:href="#New_Symbol_1"/><use width="14" height="5" transform="translate(745.66 416.12) scale(0.5 0.46)" xlink:href="#New_Symbol_1"/><use width="14" height="5" transform="translate(619.59 421.58) scale(0.72 0.66)"/><use width="14" height="5" transform="translate(584.64 425.35) scale(0.57 0.52)"/><use width="14" height="5" transform="translate(586.66 421.33) scale(0.57 0.52)"/><use width="14" height="5" transform="translate(833.25 424.18) scale(0.54 0.49)"/><use width="14" height="5" transform="translate(798.38 424.91) scale(0.52 0.47)"/><use width="14" height="5" transform="translate(839.83 427.57) scale(0.54 0.49)"/><use width="14" height="5" transform="translate(901.04 429.1) scale(0.44 0.4)"/><use width="14" height="5" transform="translate(775.42 414.6) scale(0.45 0.41)"/><use width="14" height="5" transform="translate(658.3 412.66) scale(0.69 0.63)" xlink:href="#New_Symbol_1"/><use width="14" height="5" transform="translate(585.34 404.53) scale(0.58 0.53)"/><use width="14" height="5" transform="translate(594.48 405.27) scale(0.61 0.55)"/><use width="14" height="5" transform="translate(581 408.07) scale(0.57 0.52)"/><use width="14" height="5" transform="translate(456.94 410.6) scale(0.46 0.42)"/><use width="14" height="5" transform="translate(800.39 373.64) scale(0.44 0.4)"/><use width="14" height="5" transform="translate(754.52 372.97) scale(0.29 0.26)"/><use width="14" height="5" transform="translate(793.12 371.62) scale(0.4 0.36)"/><use width="14" height="5" transform="translate(796 369.96) scale(0.41 0.37)"/><use width="14" height="5" transform="translate(903.12 369.39) scale(0.37 0.34)" xlink:href="#New_Symbol_1"/><use width="14" height="5" transform="translate(739.94 378.2) scale(0.26 0.24)"/><use width="14" height="5" transform="translate(666.93 374.38) scale(0.14 0.13)"/><use width="14" height="5" transform="translate(705.13 372.21) scale(0.13 0.12)"/><use width="14" height="5" transform="translate(698.72 363.45) scale(0.09 0.08)"/><use width="14" height="5" transform="translate(697.16 360.51) scale(0.08 0.07)"/><use width="14" height="5" transform="translate(705.84 360.07) scale(0.09 0.08)"/><use width="14" height="5" transform="translate(775.2 368.72) scale(0.31 0.29)"/><use width="14" height="5" transform="translate(809.43 365.89) scale(0.48 0.43)"/><use width="14" height="5" transform="translate(699.03 335.11) scale(0.12 0.11)"/><use width="14" height="5" transform="translate(680.09 330.64) scale(0.13 0.12)"/><use width="14" height="5" transform="translate(680.06 331.58) scale(0.13 0.12)"/><use width="14" height="5" transform="translate(688.87 331.09) scale(0.13 0.12)"/><use width="14" height="5" transform="translate(651.17 341.9) scale(0.13 0.12)"/><use width="14" height="5" transform="translate(643.13 378) scale(0.24 0.22)"/><use width="14" height="5" transform="translate(540.29 379.29) scale(0.5 0.45)"/><use width="14" height="5" transform="translate(530.04 379.01) scale(0.51 0.47)"/><use width="14" height="5" transform="translate(531.63 383.31) scale(0.5 0.45)"/><use width="14" height="5" transform="translate(730.37 403.69) scale(0.51 0.46)" xlink:href="#New_Symbol_1"/><use width="14" height="5" transform="translate(884.95 401.58) scale(0.38 0.34)"/><use width="14" height="5" transform="translate(974.61 391.86) scale(0.29 0.27)" xlink:href="#New_Symbol_1"/><use width="14" height="5" transform="translate(995.11 392.24) scale(0.34 0.31)" xlink:href="#New_Symbol_1"/><use width="14" height="5" transform="translate(849.55 349.5) scale(0.67 0.61)" xlink:href="#New_Symbol_1"/><use width="14" height="5" transform="translate(939.64 353.2) scale(0.28 0.26)" xlink:href="#New_Symbol_1"/><use width="14" height="5" transform="translate(899.43 357.6) scale(0.45 0.41)" xlink:href="#New_Symbol_1"/><use width="14" height="5" transform="translate(928.7 359.36) scale(0.3 0.27)" xlink:href="#New_Symbol_1"/><use width="14" height="5" transform="translate(913.87 364.49) scale(0.35 0.32)" xlink:href="#New_Symbol_1"/><use width="14" height="5" transform="translate(970.35 366.64) scale(0.23 0.21)" xlink:href="#New_Symbol_1"/><use width="14" height="5" transform="translate(1009.26 366.46) scale(0.33 0.3)" xlink:href="#New_Symbol_1"/><use width="14" height="5" transform="translate(1028.02 399.11) scale(0.38 0.34)" xlink:href="#New_Symbol_1"/><use width="14" height="5" transform="translate(1094.45 402.19) scale(0.38 0.34)" xlink:href="#New_Symbol_1"/><use width="14" height="5" transform="translate(1091.31 397.65) scale(0.35 0.32)" xlink:href="#New_Symbol_1"/><use width="14" height="5" transform="translate(1088.01 402.23) scale(0.35 0.32)" xlink:href="#New_Symbol_1"/><use width="14" height="5" transform="translate(818.25 404.75) scale(0.54 0.49)"/><use width="14" height="5" transform="translate(681.45 403) scale(0.45 0.41)" xlink:href="#New_Symbol_1"/><use width="14" height="5" transform="translate(649.96 403.82) scale(0.56 0.51)" xlink:href="#New_Symbol_1"/><use width="14" height="5" transform="translate(736.1 404.56) scale(0.5 0.46)" xlink:href="#New_Symbol_1"/><use width="14" height="5" transform="translate(674.9 406.92) scale(0.57 0.52)" xlink:href="#New_Symbol_1"/><use width="14" height="5" transform="translate(673.9 402.1) scale(0.45 0.41)" xlink:href="#New_Symbol_1"/><use width="14" height="5" transform="translate(522.3 398.42) scale(0.44 0.4)"/><use width="14" height="5" transform="translate(457.53 396.4) scale(0.48 0.44)"/><use width="14" height="5" transform="translate(543.5 401.86) scale(0.46 0.42)"/><use width="14" height="5" transform="translate(502.35 405.56) scale(0.4 0.36)"/><use width="14" height="5" transform="translate(534.08 410.9) scale(0.43 0.4)"/><use width="14" height="5" transform="translate(695.3 317.52) scale(0.25 0.22)"/><use width="14" height="5" transform="translate(749.4 325.06) scale(0.31 0.28)"/><use width="14" height="5" transform="translate(750.71 325) scale(0.31 0.29)"/><use width="14" height="5" transform="translate(747.68 324.91) scale(0.31 0.28)"/><use width="14" height="5" transform="translate(746.11 325.98) scale(0.3 0.27)"/><use width="14" height="5" transform="translate(706.59 356.48) scale(0.09 0.08)"/><use width="14" height="5" transform="translate(749.96 354.97) scale(0.22 0.2)"/><use width="14" height="5" transform="translate(752.37 354.89) scale(0.23 0.21)"/><use width="14" height="5" transform="translate(768.56 360.59) scale(0.28 0.26)"/><use width="14" height="5" transform="translate(731.54 366.2) scale(0.17 0.15)"/><use width="14" height="5" transform="translate(791.96 364.39) scale(0.38 0.35)"/><use width="14" height="5" transform="translate(853.4 387.48) scale(0.51 0.47)"/><use width="14" height="5" transform="translate(869.73 386.13) scale(0.47 0.43)"/><use width="14" height="5" transform="translate(748.68 399.66) scale(0.45 0.41)" xlink:href="#New_Symbol_1"/><use width="14" height="5" transform="translate(856.83 398.49) scale(0.46 0.42)"/><use width="14" height="5" transform="translate(860.16 406.2) scale(0.45 0.41)"/><use width="14" height="5" transform="translate(855.45 412.38) scale(0.47 0.42)"/><use width="14" height="5" transform="translate(920.77 413.11) scale(0.37 0.34)"/><use width="14" height="5" transform="translate(898.9 420) scale(0.4 0.36)"/><use width="14" height="5" transform="translate(1047.36 419.49) scale(0.46 0.42)" xlink:href="#New_Symbol_1"/><use width="14" height="5" transform="translate(871.35 422.43) scale(0.45 0.41)"/><use width="14" height="5" transform="translate(917.79 424.26) scale(0.43 0.4)"/><use width="14" height="5" transform="translate(557.34 402.31) scale(0.49 0.44)"/><use width="14" height="5" transform="translate(659.05 400.62) scale(0.46 0.42)" xlink:href="#New_Symbol_1"/><use width="14" height="5" transform="translate(752.9 398.06) scale(0.43 0.39)" xlink:href="#New_Symbol_1"/><use width="14" height="5" transform="translate(766.26 367.42) scale(0.28 0.26)"/><use width="14" height="5" transform="translate(725.47 358.71) scale(0.13 0.12)"/><use width="14" height="5" transform="translate(575.95 340.03) scale(0.39 0.35)"/><use width="14" height="5" transform="translate(694.21 345.22) scale(0.08 0.08)"/><use width="14" height="5" transform="translate(727.84 330.87) scale(0.2 0.19)"/><use width="14" height="5" transform="translate(648 335.68) scale(0.17 0.15)"/><use width="14" height="5" transform="translate(780.51 312.24) scale(0.44 0.4)"/><use width="14" height="5" transform="translate(566.16 346.55) scale(0.43 0.39)"/><use width="14" height="5" transform="translate(740.67 380.85) scale(0.29 0.26)"/><use width="14" height="5" transform="translate(625.59 398.44) scale(0.61 0.56)"/><use width="14" height="5" transform="translate(639.01 403.8) scale(0.64 0.58)" xlink:href="#New_Symbol_1"/><use width="14" height="5" transform="translate(668.46 394.03) scale(0.32 0.29)"/><use width="14" height="5" transform="translate(822.34 385.8) scale(0.54 0.49)"/><use width="14" height="5" transform="translate(831.16 383.3) scale(0.56 0.51)"/><use width="14" height="5" transform="translate(785.68 392.11) scale(0.43 0.39)"/><use width="14" height="5" transform="translate(697.31 405.15) scale(0.5 0.45)" xlink:href="#New_Symbol_1"/><use width="14" height="5" transform="translate(687.75 405.76) scale(0.52 0.48)" xlink:href="#New_Symbol_1"/><use width="14" height="5" transform="translate(839.28 409.75) scale(0.5 0.46)"/><use width="14" height="5" transform="translate(881.88 410.36) scale(0.4 0.36)"/><use width="14" height="5" transform="translate(912.26 408.86) scale(0.35 0.32)"/><use width="14" height="5" transform="translate(944.74 411.63) scale(0.39 0.36)" xlink:href="#New_Symbol_1"/><use width="14" height="5" transform="translate(1034.54 407.91) scale(0.42 0.38)" xlink:href="#New_Symbol_1"/><use width="14" height="5" transform="translate(890.89 427.57) scale(0.43 0.39)"/><use width="14" height="5" transform="translate(824.02 425.29) scale(0.56 0.51)"/><use width="14" height="5" transform="translate(874.92 428.68) scale(0.46 0.42)"/><use width="14" height="5" transform="translate(1037.97 429.43) scale(0.56 0.51)" xlink:href="#New_Symbol_1"/><use width="14" height="5" transform="translate(1034.55 424.43) scale(0.53 0.49)" xlink:href="#New_Symbol_1"/><use width="14" height="5" transform="translate(1020.05 386.81) scale(0.33 0.3)" xlink:href="#New_Symbol_1"/><use width="14" height="5" transform="translate(924.29 378.63) scale(0.27 0.25)" xlink:href="#New_Symbol_1"/><use width="14" height="5" transform="translate(929.27 371.29) scale(0.25 0.23)" xlink:href="#New_Symbol_1"/><use width="14" height="5" transform="translate(983.76 353.34) scale(0.29 0.26)" xlink:href="#New_Symbol_1"/><use width="14" height="5" transform="translate(988.86 353.36) scale(0.31 0.28)" xlink:href="#New_Symbol_1"/><use width="14" height="5" transform="translate(809.7 353.41) scale(0.47 0.43)"/><use width="14" height="5" transform="translate(805.69 354.34) scale(0.45 0.41)"/><use width="14" height="5" transform="translate(1022.3 403.48) scale(0.41 0.37)" xlink:href="#New_Symbol_1"/><use width="14" height="5" transform="translate(1113.78 403.48) scale(0.45 0.41)" xlink:href="#New_Symbol_1"/><use width="14" height="5" transform="translate(1055.33 397.35) scale(0.33 0.3)" xlink:href="#New_Symbol_1"/><use width="14" height="5" transform="translate(1064.4 388.85) scale(0.33 0.3)" xlink:href="#New_Symbol_1"/><use width="14" height="5" transform="translate(1074.69 379.56) scale(0.34 0.31)" xlink:href="#New_Symbol_1"/><use width="14" height="5" transform="translate(1075.16 372.25) scale(0.38 0.34)" xlink:href="#New_Symbol_1"/><use width="14" height="5" transform="translate(1073.11 425.06) scale(0.46 0.42)" xlink:href="#New_Symbol_1"/><use width="14" height="5" transform="translate(887.7 392.72) scale(0.38 0.34)"/><use width="14" height="5" transform="translate(710.24 362.17) scale(0.1 0.1)"/><use width="14" height="5" transform="translate(665.2 351.1) scale(0.09 0.08)"/><use width="14" height="5" transform="translate(713.29 337.09) scale(0.14 0.13)"/><use width="14" height="5" transform="translate(602.64 331.3) scale(0.34 0.31)"/><use width="14" height="5" transform="translate(603.72 344.21) scale(0.29 0.27)"/><use width="14" height="5" transform="translate(602.18 364.74) scale(0.35 0.32)"/><path class="cls-9" d="M497.82,167c-23-.08-45.11,7.78-68.11,8.14-15.34.24-30.71,0-46,0-9.19,0-18-2-27.1-2.35-8.4-.37-16.94,1-25.13-1.1-9-2.37-17.47-4.49-26.81-5.39-24.79-2.4-51.39-5.22-76.22-2.58-3.22,12,50.59,9.44,58.56,11,24.45,4.72,51.36,3.91,76.24,3.91,32.54,0,64.93.36,97.35,3.33,21.21,2,44.29-.8,63.22-10.86-4.92-4-15.22-2.88-21.32-2.9"/><path class="cls-9" d="M257,203.2h60.39c14.6,0,30,1.49,44.5.47-7.3-1-13.6-4-21.25-4.08-11.82-.06-23.29-2.61-35-4.19-15.13-2.05-27.63,1.87-42.48,3.77-12.46,1.6-25.68-1-37.9.62,5.47,5,22.3,6.18,29.29,2.81"/><path class="cls-9" d="M137,55.86c9.65,3.33,16.77,11.33,26.31,15.16,24.74,10,55.17,9.28,81.17,6.67,18.3-1.84,36.37-5.56,54.62-7.59,16.12-1.8,32.58-.74,48.76-.85,9.39-.07,11.85,2.4,19.88,5,11.3,3.71,26.3.86,37.86.93,27.33.16,54.19-5.81,81.4-8.14,24.77-2.11,50.42-2.12,75.29-1.5,30.4.75,59,7.36,89,10.33,17.29,1.71,36.9,4.88,54.19,1.56,7-1.35,13.18-5.3,20.14-6.66,7.21-1.41,13.24-2,20.41-4.58a33.53,33.53,0,0,0,16.61-11.91c-19-4.33-45.35-1.73-65-.11-13,1.06-25.44,2.7-38.28,4.93-21.09,3.66-44.22,1.18-65.59,1.18h-230c-44,0-87-8.16-131-8.18-30.2,0-61.91-.92-92,.74"/><polyline class="cls-10" points="596.31 237.64 596.31 166.68 598.34 239.26"/><polyline class="cls-10" points="649.84 237.64 650.25 176.41 651.87 237.64"/><polyline class="cls-10" points="733.78 236.83 724.86 176.41 736.62 236.83"/><polyline class="cls-10" points="855.04 239.27 855.04 198.32 857.88 240.08"/><polyline class="cls-10" points="888.83 239.53 887.65 165.46 891.8 237.75"/><polyline class="cls-10" points="942.61 237.64 944.23 192.63 944.64 238.85"/><polyline class="cls-10" points="981.13 238.04 973.83 170.73 983.16 238.45"/><g class="cls-11"><path class="cls-12" d="M970.44,195.15c-6.61,3.17-18.62,6.16-15.8,16,1.75,6.09,9.56,8,15.11,7.4,5.14-.58,10.1-2.72,15.24-3.44,4.28-.6,8.59.12,12.84-.55,3.33-.52,8.64-1.74,11-4.37,3.19-3.53,2.66-9.54,4.74-13.67,2.39-4.78,4.44-7.77-.49-12.26s-11.51-4.9-17.58-3.65c-5.26,1.07-27.75,8.38-25.85,17.26"/></g><g class="cls-11"><path class="cls-12" d="M954.22,222.6c-.17-3.41-16.41-10.48-20.18-8.28-5.23,3.05,6.08,11.44,12.57,11.77S954.22,222.6,954.22,222.6Z"/></g><g class="cls-11"><path class="cls-12" d="M994.45,223.08c-5.09.77-16.06,7.49-20.06,3-5.57-6.23,1.21-10.63,6.41-12.21,3.38-1,15.16-5.26,16.33,1.29.76,4.21-5.09,4.85-8.07,6"/></g><g class="cls-11"><path class="cls-12" d="M602.78,231.57c-4.8,2.14-16.37,2.75-20.84.13-3.07-1.8-5.74-8.39-4.2-11.84,3.36-7.54,12.49,2,16.16,4.1Z"/></g><g class="cls-11"><path class="cls-12" d="M902.74,206.7c-.6,2.43-21.62,14.76-19.94,5.15s11.11-8.77,17.94-8.15C900.74,203.7,903.34,204.27,902.74,206.7Z"/></g><g class="cls-11"><path class="cls-12" d="M939.58,202.13c-.54,4.82,11.51,5.21,11.6-2.59S940.11,197.32,939.58,202.13Z"/></g><g class="cls-11"><path class="cls-12" d="M917.69,222.88c-4.77.28-7.74-.86-11.42,2,6.55,3.65,11.7,2.16,17.54-2Z"/></g><g class="cls-11"><path class="cls-12" d="M530.2,227.49c.8-2.22,12.93-2.79,13.38.65s-7.72,3.66-9.61,3.45C532.63,231.45,529.59,229.2,530.2,227.49Z"/></g><g class="cls-11"><path class="cls-12" d="M480.76,222.19c-4.34.18-5.28,5.35-3.91,6.28s11.78-.8,11.91-3.28S480.76,222.19,480.76,222.19Z"/></g><g class="cls-11"><path class="cls-12" d="M580.76,185.19c-.39-5.88,5.11-10.45,8.67-9.77,1.77.34,2.31,1.88,1.33,2.77Z"/></g><g class="cls-11"><path class="cls-12" d="M75.76,232.19c-6.41-7.11-30.2-44-8.6-43.68,9.86.13,20.45,9.71,23.4,18.88,1.57,4.89-2.16,15.05,6.2,15.61,7.57.51,3.26-8.53,12.52-5.19,4.43,1.6,14.92,14.65,12.91,20.32-3.79,10.74-48.32,1.79-54.43-4.94"/></g><g class="cls-11"><path class="cls-12" d="M127.76,241.19c2.26-9.28,5-16.7,15.72-14.85,4,.69,7.2,5.11,11.45,5.45,4.59.37,9.81-4.71,13.92-4,3.31.57,7.73,3.12,8,6.9.43,6.76-12,4.17-16.42,4.48-6.84.5-16.34-.26-22.65,2"/></g><g class="cls-11"><path class="cls-12" d="M631.76,235.19c-6.72,2-47.5-4.47-38.47-16.42,4.37-5.77,33.44-3.42,30.48,8,11.68,5,35.85,1.67,46.22,1.35-12.68,4.52-27.21,2.45-40.23,6.05"/></g><g class="cls-11"><path class="cls-12" d="M738.76,227.19c3.55.23,6.19-1,7.63-4.24-11.57-9.64-30.17-1-43.17-.83-7.48.08-26.55-9.94-33.5-5-12.43,8.75,22.2,15.84,27.16,16.14,12.38.74,25.09-2.08,36.88-4"/></g><g class="cls-11"><path class="cls-12" d="M710.42,223.59C725.53,219.37,725.29,221,741,221c7.73,0,19.55,7.71,19.3-.15s-10.47-3.92-16.94-7.12c-5.38-2.66-11-2.61-17.23-3.89-7.74-1.58-24.13,3-29.91,8.82,3.63,1,7.42,1.25,11,2.34"/></g><g class="cls-11"><path class="cls-12" d="M894.25,226.79c4.37.34,35.5-1.95,42.39-17.71-9.77-2.81-17.2,3-25.85,5.54-7.22,2.12-15.6,3-23.1,3.58-14,1.07-22.15-6.5-29.27,3.32-5.65,11.55,18.25,8.6,23.55,8.71S889.88,226.45,894.25,226.79Z"/></g><g class="cls-13"><path class="cls-14" d="M397,245h27.61c3.55,0,7.06-.3,10.58-.27a37.18,37.18,0,0,1,4.1.38c1.9.22,4.46.07,6.2.56-1.18,1.17-4.3.9-6.05,1-2.29.13-4.63.16-6.91.24-4.67.16-9.3-.27-14-.27-3.78,0-7.57,0-11.33-.13-2.05-.09-4.05-.38-6.1-.41-1.22,0-4.06.38-4.64-.68a1.06,1.06,0,0,1,.5-.27"/></g><path class="cls-15" d="M421.31,237.64c-.21,1-.84,5.85-.84,5.85s.7,2.25,1.63,2.84a4.74,4.74,0,0,0,4.11.22,5.67,5.67,0,0,0,1.85-3c.21-1.22-.95-5.59-.95-5.59a3.7,3.7,0,0,0-2.27-2.11C423.26,235.48,421.31,237.64,421.31,237.64Z"/><path class="cls-15" d="M397.86,242.12a10,10,0,0,0,.63,2.48,4.3,4.3,0,0,0,1.64,1.48,7.36,7.36,0,0,0,3.53-.21,6.84,6.84,0,0,0,1.95-2.9c.31-.95-.85-5.38-1.64-6.12s-4.27-.89-4.27-.89l-2.16,2.74Z"/><path class="cls-15" d="M413.46,242.86a4.9,4.9,0,0,0,.15,1.71c.11.26.8,1,1.38,1a18.5,18.5,0,0,0,2.47,0,4.27,4.27,0,0,0,1.9-2.37C419.36,242.6,413.46,242.86,413.46,242.86Z"/><path class="cls-7" d="M442.61,243.76c1.36-.61,3.57-1.08,2.66-3.35s-1.21-5.61-3.18-6.21a42.86,42.86,0,0,1-6.21-2.58c-1.06-.61-5.46-5-6.67-5.15s-8.63-.46-12.27-.61-16.36.61-17.27,1.06-3.94,5.61-3.94,6.52.45,2.72.45,3.18-1.51,2.27-1.51,2.27.45,4.09.91,3.94a14,14,0,0,1,2.72.15s-.49-5.18,1.93-5.18,4.11,2.95,4.11,5.64c1.67,0,15.29.22,16.5.37-.1-1.5-.4-5.71,2.47-6.17s3.85,3.64,3.75,6.33c2.42,0,8.73-.3,9.48,0Z"/><path class="cls-15" d="M397.61,232.48l23.94,1.28s-3.84-5-4.25-5.32a3.44,3.44,0,0,0-2.3-.92c-1.23-.05-11.61,0-12.48.1s-2.46.26-2.92,1S397.61,232.48,397.61,232.48Z"/><path class="cls-15" d="M423.47,233.48l13.58-.27s-7-5.74-7.37-5.74-1.08-.11-1.54-.11-7.52-.05-8.13,0-2,0-1.69.46S423.47,233.48,423.47,233.48Z"/><ellipse class="cls-7" cx="401.12" cy="242.29" rx="1.73" ry="2.51"/><ellipse class="cls-7" cx="423.99" cy="242.35" rx="1.85" ry="2.51"/><path class="cls-15" d="M436.54,244c.31.45.48,1.16,1.27,1.53a5.11,5.11,0,0,0,3.53-.11,2.26,2.26,0,0,0,1.27-1.63"/><use width="10" height="2" transform="translate(493.77 363.1) scale(0.83 0.9)" xlink:href="#New_Symbol_2"/><use width="10" height="2" transform="translate(506.77 363.96) scale(0.8 0.86)" xlink:href="#New_Symbol_2"/><use width="10" height="2" transform="translate(507.78 356.24) scale(0.71 0.77)" xlink:href="#New_Symbol_2"/><use width="10" height="2" transform="translate(513.73 359.9) scale(0.72 0.77)" xlink:href="#New_Symbol_2"/><use width="10" height="2" transform="translate(531.32 360.11) scale(0.52 0.56)" xlink:href="#New_Symbol_2"/><use width="10" height="2" transform="translate(531.84 316.83) scale(0.69 0.74)" xlink:href="#New_Symbol_2"/><use width="10" height="2" transform="translate(546.38 316.16) scale(0.48 0.52)" xlink:href="#New_Symbol_2"/><use width="10" height="2" transform="translate(551.73 316.84) scale(0.41 0.44)" xlink:href="#New_Symbol_2"/><use width="10" height="2" transform="translate(508.36 315.57) scale(0.38 0.41)" xlink:href="#New_Symbol_2"/><use width="10" height="2" transform="translate(483.27 314.76) scale(0.37 0.4)" xlink:href="#New_Symbol_2"/><use width="10" height="2" transform="translate(467.26 316.22) scale(0.39 0.42)" xlink:href="#New_Symbol_2"/><use width="10" height="2" transform="translate(447.68 318.5) scale(0.31 0.33)" xlink:href="#New_Symbol_2"/><use width="10" height="2" transform="translate(438.26 317.47) scale(0.31 0.33)" xlink:href="#New_Symbol_2"/><use width="10" height="2" transform="translate(437.86 321.26) scale(0.27 0.29)" xlink:href="#New_Symbol_2"/><use width="10" height="2" transform="translate(487.36 329.08) scale(0.23 0.25)" xlink:href="#New_Symbol_2"/><use width="10" height="2" transform="translate(466.44 331.69) scale(0.38 0.41)" xlink:href="#New_Symbol_2"/><use width="10" height="2" transform="translate(482.39 332.45) scale(0.31 0.33)" xlink:href="#New_Symbol_2"/><use width="10" height="2" transform="translate(504.8 329.92) scale(0.22 0.23)" xlink:href="#New_Symbol_2"/><use width="10" height="2" transform="translate(460.59 333.7) scale(0.41 0.45)" xlink:href="#New_Symbol_2"/><use width="10" height="2" transform="translate(471.78 333.26) scale(0.4 0.43)" xlink:href="#New_Symbol_2"/><use width="10" height="2" transform="translate(563.14 331.29) scale(0.39 0.42)" xlink:href="#New_Symbol_2"/><use width="10" height="2" transform="translate(586.1 304.75) scale(0.3 0.32)" xlink:href="#New_Symbol_2"/><use width="10" height="2" transform="translate(615.39 305.45) scale(0.08 0.09)" xlink:href="#New_Symbol_2"/><use width="10" height="2" transform="translate(624.81 305.48) scale(0.13 0.14)" xlink:href="#New_Symbol_2"/><use width="10" height="2" transform="translate(603.24 302.3) scale(0.16 0.17)" xlink:href="#New_Symbol_2"/><use width="10" height="2" transform="translate(634.21 303.29) scale(0.26 0.28)" xlink:href="#New_Symbol_2"/><use width="10" height="2" transform="translate(639.73 304.77) scale(0.27 0.3)" xlink:href="#New_Symbol_2"/><use width="10" height="2" transform="translate(580.97 315.31) scale(0.25 0.27)" xlink:href="#New_Symbol_2"/><use width="10" height="2" transform="translate(616.24 319.43) scale(0.05 0.06)" xlink:href="#New_Symbol_2"/><use width="10" height="2" transform="translate(588.65 319.34) scale(0.16 0.18)" xlink:href="#New_Symbol_2"/><use width="10" height="2" transform="translate(587.87 318.68) scale(0.17 0.18)" xlink:href="#New_Symbol_2"/><use width="10" height="2" transform="translate(561.96 321.67) scale(0.34 0.36)" xlink:href="#New_Symbol_2"/><use width="10" height="2" transform="translate(482.02 413.95) scale(0.68 0.73)" xlink:href="#New_Symbol_2"/><use width="10" height="2" transform="translate(433.31 420.1) scale(0.73 0.79)" xlink:href="#New_Symbol_2"/><use width="10" height="2" transform="translate(422.72 426.03) scale(0.72 0.77)" xlink:href="#New_Symbol_2"/><use width="10" height="2" transform="translate(421.55 419.7) scale(0.73 0.79)" xlink:href="#New_Symbol_2"/><use width="10" height="2" transform="translate(440.69 424.53) scale(0.71 0.77)" xlink:href="#New_Symbol_2"/><use width="10" height="2" transform="translate(557.07 423.18) scale(0.76 0.82)" xlink:href="#New_Symbol_2"/><use width="10" height="2" transform="translate(607.38 424.73) scale(0.7 0.76)" xlink:href="#New_Symbol_2"/><use width="10" height="2" transform="translate(713.43 421.33) scale(0.82 0.88)" xlink:href="#New_Symbol_2"/><use width="10" height="2" transform="translate(674.6 428.81) scale(0.69 0.74)" xlink:href="#New_Symbol_2"/><use width="10" height="2" transform="translate(749.65 425.02) scale(0.86 0.93)" xlink:href="#New_Symbol_2"/><use width="10" height="2" transform="translate(782.66 424.65) scale(0.91 0.98)" xlink:href="#New_Symbol_2"/><use width="10" height="2" transform="translate(837.5 409.22) scale(1.07 1.15)" xlink:href="#New_Symbol_2"/><use width="10" height="2" transform="translate(743.17 409.68) scale(0.79 0.85)" xlink:href="#New_Symbol_2"/><use width="10" height="2" transform="translate(669.9 408.27) scale(0.73 0.79)" xlink:href="#New_Symbol_2"/><use width="10" height="2" transform="translate(662.77 411.23) scale(0.74 0.8)" xlink:href="#New_Symbol_2"/><use width="10" height="2" transform="translate(761.26 401.57) scale(0.83 0.9)" xlink:href="#New_Symbol_2"/><use width="10" height="2" transform="translate(647.72 367.52) scale(0.75 0.8)" xlink:href="#New_Symbol_2"/><use width="10" height="2" transform="translate(697.02 377.83) scale(0.52 0.56)" xlink:href="#New_Symbol_2"/><use width="10" height="2" transform="translate(682.49 382.82) scale(0.65 0.7)" xlink:href="#New_Symbol_2"/><use width="10" height="2" transform="translate(618.08 384.63) scale(0.72 0.78)" xlink:href="#New_Symbol_2"/><use width="10" height="2" transform="translate(645.18 389.33) scale(0.74 0.8)" xlink:href="#New_Symbol_2"/><use width="10" height="2" transform="translate(642.45 398.75) scale(0.78 0.83)" xlink:href="#New_Symbol_2"/><use width="10" height="2" transform="translate(824.63 425.19) scale(1.26 1.36)" xlink:href="#New_Symbol_2"/><use width="10" height="2" transform="translate(875.52 430.57) scale(0.99 1.06)" xlink:href="#New_Symbol_2"/><use width="10" height="2" transform="translate(844.36 442.6) scale(1.25 1.35)" xlink:href="#New_Symbol_2"/><use width="10" height="2" transform="translate(765.16 447.76) scale(1.01 1.08)" xlink:href="#New_Symbol_2"/><use width="10" height="2" transform="translate(757.63 448.35) scale(0.9 0.97)" xlink:href="#New_Symbol_2"/><use width="10" height="2" transform="translate(714.16 449.74) scale(0.7 0.75)" xlink:href="#New_Symbol_2"/><use width="10" height="2" transform="translate(640.74 450) scale(0.66 0.71)" xlink:href="#New_Symbol_2"/><use width="10" height="2" transform="translate(631.13 450.99) scale(0.66 0.71)" xlink:href="#New_Symbol_2"/><use width="10" height="2" transform="translate(790.79 381.07) scale(1.28 1.37)" xlink:href="#New_Symbol_2"/><use width="10" height="2" transform="translate(735.99 370.86) scale(0.9 0.97)" xlink:href="#New_Symbol_2"/><use width="10" height="2" transform="translate(781.37 369.42) scale(0.97 1.05)" xlink:href="#New_Symbol_2"/><use width="10" height="2" transform="translate(798.71 371.13) scale(0.87 0.93)" xlink:href="#New_Symbol_2"/><use width="10" height="2" transform="translate(789.7 370.11) scale(0.97 1.04)" xlink:href="#New_Symbol_2"/><use width="10" height="2" transform="translate(849.41 372.39) scale(0.72 0.78)" xlink:href="#New_Symbol_2"/><use width="10" height="2" transform="translate(855.01 373.66) scale(0.73 0.79)" xlink:href="#New_Symbol_2"/><use width="10" height="2" transform="translate(695.28 359.14) scale(0.7 0.75)" xlink:href="#New_Symbol_2"/><use width="10" height="2" transform="translate(606.08 358.97) scale(0.55 0.6)" xlink:href="#New_Symbol_2"/><use width="10" height="2" transform="translate(618.61 361.64) scale(0.63 0.68)" xlink:href="#New_Symbol_2"/><use width="10" height="2" transform="translate(600.46 366.69) scale(0.61 0.66)" xlink:href="#New_Symbol_2"/><use width="10" height="2" transform="translate(565.8 364.87) scale(0.71 0.76)" xlink:href="#New_Symbol_2"/><use width="10" height="2" transform="translate(573.01 371.52) scale(0.73 0.79)" xlink:href="#New_Symbol_2"/><use width="10" height="2" transform="translate(545.64 388.3) scale(0.7 0.75)" xlink:href="#New_Symbol_2"/><use width="10" height="2" transform="translate(575.89 405.11) scale(0.94 1.02)" xlink:href="#New_Symbol_2"/><use width="10" height="2" transform="translate(500.82 407.36) scale(0.93 1)" xlink:href="#New_Symbol_2"/><use width="10" height="2" transform="translate(464.57 406.69) scale(0.73 0.79)" xlink:href="#New_Symbol_2"/><use width="10" height="2" transform="translate(416.78 344.05) scale(0.17 0.18)" xlink:href="#New_Symbol_2"/><use width="10" height="2" transform="translate(412.31 344.29) scale(0.19 0.21)" xlink:href="#New_Symbol_2"/><use width="10" height="2" transform="translate(406.51 345.52) scale(0.26 0.28)" xlink:href="#New_Symbol_2"/><use width="10" height="2" transform="translate(429.06 349.64) scale(0.27 0.29)" xlink:href="#New_Symbol_2"/><use width="10" height="2" transform="translate(416.84 358.76) scale(0.4 0.43)" xlink:href="#New_Symbol_2"/><use width="10" height="2" transform="translate(428.84 373.91) scale(0.6 0.65)" xlink:href="#New_Symbol_2"/><use width="10" height="2" transform="translate(394.41 420.17) scale(0.81 0.87)" xlink:href="#New_Symbol_2"/><use width="10" height="2" transform="translate(361.02 424.35) scale(1.27 1.36)" xlink:href="#New_Symbol_2"/><use width="10" height="2" transform="translate(351.01 425.73) scale(1.01 1.09)" xlink:href="#New_Symbol_2"/><use width="10" height="2" transform="translate(634.63 318.55) scale(0.16 0.18)" xlink:href="#New_Symbol_2"/><use width="10" height="2" transform="translate(678.67 320.44) scale(0.16 0.17)" xlink:href="#New_Symbol_2"/><use width="10" height="2" transform="translate(648.85 321.87) scale(0.28 0.3)" xlink:href="#New_Symbol_2"/><use width="10" height="2" transform="translate(660.13 323.38) scale(0.29 0.31)" xlink:href="#New_Symbol_2"/><use width="10" height="2" transform="translate(652.42 330.02) scale(0.51 0.55)" xlink:href="#New_Symbol_2"/><use width="10" height="2" transform="translate(660.63 331.38) scale(0.57 0.62)" xlink:href="#New_Symbol_2"/><use width="10" height="2" transform="translate(553.52 362.53) scale(0.61 0.65)" xlink:href="#New_Symbol_2"/><use width="10" height="2" transform="translate(523.37 387.12) scale(0.81 0.87)" xlink:href="#New_Symbol_2"/><use width="10" height="2" transform="translate(497.12 395.55) scale(0.82 0.88)" xlink:href="#New_Symbol_2"/><use width="10" height="2" transform="translate(508.29 396.08) scale(1.02 1.1)" xlink:href="#New_Symbol_2"/><use width="10" height="2" transform="translate(557.74 397.57) scale(0.83 0.89)" xlink:href="#New_Symbol_2"/><use width="10" height="2" transform="translate(573.46 398.64) scale(0.89 0.96)" xlink:href="#New_Symbol_2"/><use width="10" height="2" transform="translate(530.3 411.07) scale(0.87 0.94)" xlink:href="#New_Symbol_2"/><use width="10" height="2" transform="translate(495.56 423.63) scale(0.94 1.01)" xlink:href="#New_Symbol_2"/><use width="10" height="2" transform="translate(542.09 428.45) scale(0.68 0.73)" xlink:href="#New_Symbol_2"/><use width="10" height="2" transform="translate(517.12 434.88) scale(0.75 0.81)" xlink:href="#New_Symbol_2"/><use width="10" height="2" transform="translate(502.37 436.3) scale(1.03 1.11)" xlink:href="#New_Symbol_2"/><use width="10" height="2" transform="translate(544.18 442.18) scale(0.66 0.71)" xlink:href="#New_Symbol_2"/><use width="10" height="2" transform="translate(549.22 445.78) scale(0.66 0.71)" xlink:href="#New_Symbol_2"/><use width="10" height="2" transform="translate(550.1 439.12) scale(0.66 0.71)" xlink:href="#New_Symbol_2"/><use width="10" height="2" transform="translate(623.88 435.08) scale(0.67 0.72)" xlink:href="#New_Symbol_2"/><use width="10" height="2" transform="translate(569.35 443.77) scale(0.66 0.71)" xlink:href="#New_Symbol_2"/><use width="10" height="2" transform="translate(619.65 443.62) scale(0.66 0.71)" xlink:href="#New_Symbol_2"/><use width="10" height="2" transform="translate(677.54 443.65) scale(0.66 0.71)" xlink:href="#New_Symbol_2"/><use width="10" height="2" transform="translate(696.66 442.52) scale(0.66 0.71)" xlink:href="#New_Symbol_2"/><use width="10" height="2" transform="translate(604.44 404.45) scale(0.77 0.83)" xlink:href="#New_Symbol_2"/><use width="10" height="2" transform="translate(681.94 410.63) scale(0.74 0.79)" xlink:href="#New_Symbol_2"/><use width="10" height="2" transform="translate(693.73 413.28) scale(0.73 0.79)" xlink:href="#New_Symbol_2"/><use width="10" height="2" transform="translate(671.57 419.83) scale(0.73 0.78)" xlink:href="#New_Symbol_2"/><use width="10" height="2" transform="translate(706.84 427.33) scale(0.73 0.79)" xlink:href="#New_Symbol_2"/><use width="10" height="2" transform="translate(526.95 323.27) scale(0.73 0.79)" xlink:href="#New_Symbol_2"/><use width="10" height="2" transform="translate(580.85 328.34) scale(0.26 0.28)" xlink:href="#New_Symbol_2"/><use width="10" height="2" transform="translate(563.46 327.47) scale(0.36 0.38)" xlink:href="#New_Symbol_2"/><use width="10" height="2" transform="translate(557.55 327.94) scale(0.39 0.42)" xlink:href="#New_Symbol_2"/><use width="10" height="2" transform="translate(592.12 304.44) scale(0.25 0.27)" xlink:href="#New_Symbol_2"/><use width="10" height="2" transform="translate(619.7 304.93) scale(0.1 0.11)" xlink:href="#New_Symbol_2"/><use width="10" height="2" transform="translate(630.8 303.88) scale(0.21 0.23)" xlink:href="#New_Symbol_2"/><use width="10" height="2" transform="translate(621.49 304.93) scale(0.11 0.12)" xlink:href="#New_Symbol_2"/><use width="10" height="2" transform="translate(641.52 304.76) scale(0.27 0.29)" xlink:href="#New_Symbol_2"/><use width="10" height="2" transform="translate(653.13 300.92) scale(0.3 0.33)" xlink:href="#New_Symbol_2"/><use width="10" height="2" transform="translate(646.05 309.72) scale(0.21 0.22)" xlink:href="#New_Symbol_2"/><use width="10" height="2" transform="translate(635.93 310.37) scale(0.17 0.18)" xlink:href="#New_Symbol_2"/><use width="10" height="2" transform="translate(663.55 310.58) scale(0.15 0.16)" xlink:href="#New_Symbol_2"/><use width="10" height="2" transform="translate(667.83 310.66) scale(0.14 0.15)" xlink:href="#New_Symbol_2"/><use width="10" height="2" transform="translate(698.22 308.31) scale(0.29 0.32)" xlink:href="#New_Symbol_2"/><use width="10" height="2" transform="translate(696.34 311.36) scale(0.22 0.24)" xlink:href="#New_Symbol_2"/><use width="10" height="2" transform="translate(683.03 311.03) scale(0.13 0.13)" xlink:href="#New_Symbol_2"/><use width="10" height="2" transform="translate(685.21 312.17) scale(0.12 0.13)" xlink:href="#New_Symbol_2"/><use width="10" height="2" transform="translate(700.59 313.36) scale(0.3 0.33)" xlink:href="#New_Symbol_2"/><use width="10" height="2" transform="translate(553.17 312.65) scale(0.43 0.46)" xlink:href="#New_Symbol_2"/><use width="10" height="2" transform="translate(498.64 318.64) scale(0.25 0.27)" xlink:href="#New_Symbol_2"/><use width="10" height="2" transform="translate(478.15 322.04) scale(0.32 0.35)" xlink:href="#New_Symbol_2"/><use width="10" height="2" transform="translate(490.25 330.9) scale(0.23 0.25)" xlink:href="#New_Symbol_2"/><use width="10" height="2" transform="translate(530.6 342.68) scale(0.69 0.74)" xlink:href="#New_Symbol_2"/><use width="10" height="2" transform="translate(475.15 353.94) scale(0.61 0.66)" xlink:href="#New_Symbol_2"/><use width="10" height="2" transform="translate(478.41 360.95) scale(0.7 0.75)" xlink:href="#New_Symbol_2"/><use width="10" height="2" transform="translate(421.37 367.16) scale(0.54 0.58)" xlink:href="#New_Symbol_2"/><use width="10" height="2" transform="translate(454.08 374.8) scale(0.53 0.57)" xlink:href="#New_Symbol_2"/><use width="10" height="2" transform="translate(448.3 381.05) scale(0.59 0.63)" xlink:href="#New_Symbol_2"/><use width="10" height="2" transform="translate(604.08 251.69) scale(0.08 0.04)" xlink:href="#New_Symbol_2"/><use width="10" height="2" transform="translate(608.47 250.78) scale(0.05 0.03)" xlink:href="#New_Symbol_2"/><use width="10" height="2" transform="translate(610.49 250.66) scale(0.07 0.04)" xlink:href="#New_Symbol_2"/><use width="10" height="2" transform="translate(642.26 251.19) scale(0.06 0.03)" xlink:href="#New_Symbol_2"/><use width="10" height="2" transform="translate(643.98 251.37) scale(0.07 0.04)" xlink:href="#New_Symbol_2"/><use width="10" height="2" transform="translate(646.37 251.17) scale(0.04 0.03)" xlink:href="#New_Symbol_2"/><use width="10" height="2" transform="translate(566.74 249.95) scale(0.21 0.12)" xlink:href="#New_Symbol_2"/><use width="10" height="2" transform="translate(553.3 253.77) scale(0.4 0.23)" xlink:href="#New_Symbol_2"/><use width="10" height="2" transform="translate(545.32 252.49) scale(0.44 0.25)" xlink:href="#New_Symbol_2"/><use width="10" height="2" transform="translate(550.16 250.48) scale(0.5 0.28)" xlink:href="#New_Symbol_2"/><use width="10" height="2" transform="translate(570.51 253.17) scale(0.17 0.1)" xlink:href="#New_Symbol_2"/><use width="10" height="2" transform="translate(559.95 254.66) scale(0.34 0.19)" xlink:href="#New_Symbol_2"/><use width="10" height="2" transform="translate(557.34 252.05) scale(0.39 0.22)" xlink:href="#New_Symbol_2"/><use width="10" height="2" transform="translate(586.3 253.14) scale(0.08 0.05)" xlink:href="#New_Symbol_2"/><use width="10" height="2" transform="translate(617.99 253.95) scale(0.08 0.05)" xlink:href="#New_Symbol_2"/><use width="10" height="2" transform="translate(633.23 254.6) scale(0.13 0.08)" xlink:href="#New_Symbol_2"/><use width="10" height="2" transform="translate(638.74 254.7) scale(0.13 0.07)" xlink:href="#New_Symbol_2"/><use width="10" height="2" transform="translate(574.51 244.57) scale(0.14 0.08)" xlink:href="#New_Symbol_2"/><use width="10" height="2" transform="translate(626.44 250.16) scale(0.07 0.04)" xlink:href="#New_Symbol_2"/><use width="10" height="2" transform="translate(654.05 252.06) scale(0.07 0.04)" xlink:href="#New_Symbol_2"/><use width="10" height="2" transform="translate(667.24 252.53) scale(0.09 0.05)" xlink:href="#New_Symbol_2"/><use width="10" height="2" transform="translate(684.54 253.01) scale(0.17 0.09)" xlink:href="#New_Symbol_2"/><use width="10" height="2" transform="translate(676.52 253.01) scale(0.14 0.08)" xlink:href="#New_Symbol_2"/><use width="10" height="2" transform="translate(635.13 251.12) scale(0.08 0.05)" xlink:href="#New_Symbol_2"/><use width="10" height="2" transform="translate(598.55 247.43) scale(0.04 0.02)" xlink:href="#New_Symbol_2"/><use width="10" height="2" transform="translate(595.69 247.81) scale(0.04 0.02)" xlink:href="#New_Symbol_2"/><use width="10" height="2" transform="translate(596.11 246.31) scale(0.04 0.02)" xlink:href="#New_Symbol_2"/><use width="10" height="2" transform="translate(595.33 246.91) scale(0.03 0.02)" xlink:href="#New_Symbol_2"/><use width="10" height="2" transform="translate(605.55 246.47) scale(0.06 0.03)" xlink:href="#New_Symbol_2"/><use width="10" height="2" transform="translate(605.7 247.49) scale(0.04 0.03)" xlink:href="#New_Symbol_2"/><use width="10" height="2" transform="translate(668.76 245.06) scale(0.17 0.1)" xlink:href="#New_Symbol_2"/><use width="10" height="2" transform="translate(672.87 244.57) scale(0.26 0.15)" xlink:href="#New_Symbol_2"/><use width="10" height="2" transform="translate(678.79 244.91) scale(0.24 0.13)" xlink:href="#New_Symbol_2"/><use width="10" height="2" transform="translate(690 247.25) scale(0.19 0.11)" xlink:href="#New_Symbol_2"/><use width="10" height="2" transform="translate(694.71 246.72) scale(0.28 0.16)" xlink:href="#New_Symbol_2"/><use width="10" height="2" transform="translate(641.82 247.59) scale(0.08 0.04)" xlink:href="#New_Symbol_2"/><use width="10" height="2" transform="translate(630.47 247.18) scale(0.1 0.06)" xlink:href="#New_Symbol_2"/><use width="10" height="2" transform="translate(612.05 246.09) scale(0.06 0.04)" xlink:href="#New_Symbol_2"/><use width="10" height="2" transform="translate(646.9 245.54) scale(0.13 0.08)" xlink:href="#New_Symbol_2"/><use width="10" height="2" transform="translate(686.55 243.89) scale(0.34 0.19)" xlink:href="#New_Symbol_2"/><use width="10" height="2" transform="translate(694.2 243.16) scale(0.43 0.24)" xlink:href="#New_Symbol_2"/><use width="10" height="2" transform="translate(716.5 244.13) scale(0.37 0.21)" xlink:href="#New_Symbol_2"/><use width="10" height="2" transform="translate(721.04 245.33) scale(0.3 0.17)" xlink:href="#New_Symbol_2"/><use width="10" height="2" transform="translate(747.37 244.4) scale(0.34 0.19)" xlink:href="#New_Symbol_2"/><use width="10" height="2" transform="translate(747.64 246.61) scale(0.29 0.16)" xlink:href="#New_Symbol_2"/><use width="10" height="2" transform="translate(768.66 246.67) scale(0.29 0.17)" xlink:href="#New_Symbol_2"/><use width="10" height="2" transform="translate(778.05 248.24) scale(0.23 0.13)" xlink:href="#New_Symbol_2"/><use width="10" height="2" transform="translate(633.02 248.9) scale(0.08 0.04)" xlink:href="#New_Symbol_2"/><use width="10" height="2" transform="translate(671.92 249.16) scale(0.06 0.04)" xlink:href="#New_Symbol_2"/><use width="10" height="2" transform="translate(700.81 247.08) scale(0.29 0.16)" xlink:href="#New_Symbol_2"/><use width="10" height="2" transform="translate(699.27 250.91) scale(0.24 0.14)" xlink:href="#New_Symbol_2"/><use width="10" height="2" transform="translate(701.3 249.25) scale(0.25 0.14)" xlink:href="#New_Symbol_2"/><use width="10" height="2" transform="translate(717.38 249.17) scale(0.26 0.15)" xlink:href="#New_Symbol_2"/><use width="10" height="2" transform="translate(727.44 249.96) scale(0.24 0.14)" xlink:href="#New_Symbol_2"/><use width="10" height="2" transform="translate(710.86 251.01) scale(0.28 0.16)" xlink:href="#New_Symbol_2"/><use width="10" height="2" transform="translate(636.58 248.84) scale(0.07 0.04)" xlink:href="#New_Symbol_2"/><use width="10" height="2" transform="translate(630.84 248.9) scale(0.08 0.04)" xlink:href="#New_Symbol_2"/><use width="10" height="2" transform="translate(602.97 248.27) scale(0.05 0.03)" xlink:href="#New_Symbol_2"/><use width="10" height="2" transform="translate(607.75 246.99) scale(0.05 0.03)" xlink:href="#New_Symbol_2"/><use width="10" height="2" transform="translate(663.52 247.45) scale(0.07 0.04)" xlink:href="#New_Symbol_2"/><use width="10" height="2" transform="translate(662.84 246.24) scale(0.11 0.06)" xlink:href="#New_Symbol_2"/><use width="10" height="2" transform="translate(679.97 247.36) scale(0.14 0.08)" xlink:href="#New_Symbol_2"/><use width="10" height="2" transform="translate(631.95 244.99) scale(0.19 0.11)" xlink:href="#New_Symbol_2"/><use width="10" height="2" transform="translate(635.16 244.69) scale(0.22 0.13)" xlink:href="#New_Symbol_2"/><use width="10" height="2" transform="translate(635.44 246.53) scale(0.12 0.07)" xlink:href="#New_Symbol_2"/><use width="10" height="2" transform="translate(678.56 249.61) scale(0.09 0.05)" xlink:href="#New_Symbol_2"/><use width="10" height="2" transform="translate(660.35 248.91) scale(0.04 0.02)" xlink:href="#New_Symbol_2"/><use width="10" height="2" transform="translate(663.81 249.4) scale(0.05 0.03)" xlink:href="#New_Symbol_2"/><use width="10" height="2" transform="translate(677.59 248.44) scale(0.1 0.06)" xlink:href="#New_Symbol_2"/><use width="10" height="2" transform="translate(674.91 248.6) scale(0.09 0.05)" xlink:href="#New_Symbol_2"/><use width="10" height="2" transform="translate(696.04 249.38) scale(0.2 0.11)" xlink:href="#New_Symbol_2"/><use width="10" height="2" transform="translate(659.54 250.58) scale(0.04 0.03)" xlink:href="#New_Symbol_2"/><use width="10" height="2" transform="translate(600.29 245.91) scale(0.06 0.03)" xlink:href="#New_Symbol_2"/><use width="10" height="2" transform="translate(593.43 245.08) scale(0.05 0.03)" xlink:href="#New_Symbol_2"/><use width="10" height="2" transform="translate(591.63 245.41) scale(0.04 0.02)" xlink:href="#New_Symbol_2"/><use width="10" height="2" transform="translate(643.99 243) scale(0.31 0.17)" xlink:href="#New_Symbol_2"/><use width="10" height="2" transform="translate(727.08 243.36) scale(0.35 0.2)" xlink:href="#New_Symbol_2"/><use width="10" height="2" transform="translate(768.99 242.16) scale(0.41 0.23)" xlink:href="#New_Symbol_2"/><use width="10" height="2" transform="translate(780.63 241.77) scale(0.38 0.22)" xlink:href="#New_Symbol_2"/><use width="10" height="2" transform="translate(792.29 242.03) scale(0.32 0.18)" xlink:href="#New_Symbol_2"/><use width="10" height="2" transform="translate(806.98 241.88) scale(0.33 0.19)" xlink:href="#New_Symbol_2"/><use width="10" height="2" transform="translate(824.52 241.71) scale(0.37 0.21)" xlink:href="#New_Symbol_2"/><use width="10" height="2" transform="translate(847.32 242.86) scale(0.32 0.18)" xlink:href="#New_Symbol_2"/><use width="10" height="2" transform="translate(867.45 242.58) scale(0.32 0.18)" xlink:href="#New_Symbol_2"/><use width="10" height="2" transform="translate(875.57 242.82) scale(0.33 0.19)" xlink:href="#New_Symbol_2"/><use width="10" height="2" transform="translate(831.6 244.14) scale(0.29 0.16)" xlink:href="#New_Symbol_2"/><use width="10" height="2" transform="translate(799.55 244.32) scale(0.23 0.13)" xlink:href="#New_Symbol_2"/><use width="10" height="2" transform="translate(814.81 243.94) scale(0.27 0.15)" xlink:href="#New_Symbol_2"/><use width="10" height="2" transform="translate(892.99 244.32) scale(0.36 0.2)" xlink:href="#New_Symbol_2"/><use width="10" height="2" transform="translate(820.74 248.36) scale(0.24 0.14)" xlink:href="#New_Symbol_2"/><use width="10" height="2" transform="translate(824.13 248.37) scale(0.24 0.14)" xlink:href="#New_Symbol_2"/><use width="10" height="2" transform="translate(911.54 246.62) scale(0.33 0.19)" xlink:href="#New_Symbol_2"/><use width="10" height="2" transform="translate(944.1 246.47) scale(0.27 0.15)" xlink:href="#New_Symbol_2"/><use width="10" height="2" transform="translate(963.58 246.41) scale(0.27 0.16)" xlink:href="#New_Symbol_2"/><use width="10" height="2" transform="translate(973.36 244.59) scale(0.32 0.18)" xlink:href="#New_Symbol_2"/><use width="10" height="2" transform="translate(979.94 244.95) scale(0.34 0.19)" xlink:href="#New_Symbol_2"/><use width="10" height="2" transform="translate(952.14 246.11) scale(0.28 0.16)" xlink:href="#New_Symbol_2"/><use width="10" height="2" transform="translate(877.3 248.56) scale(0.28 0.16)" xlink:href="#New_Symbol_2"/><use width="10" height="2" transform="translate(805.01 251.03) scale(0.23 0.13)" xlink:href="#New_Symbol_2"/><use width="10" height="2" transform="translate(769.06 251.13) scale(0.29 0.16)" xlink:href="#New_Symbol_2"/><use width="10" height="2" transform="translate(772.84 251.44) scale(0.29 0.16)" xlink:href="#New_Symbol_2"/><use width="10" height="2" transform="translate(871.42 250.44) scale(0.29 0.16)" xlink:href="#New_Symbol_2"/><use width="10" height="2" transform="translate(929.59 249.71) scale(0.27 0.15)" xlink:href="#New_Symbol_2"/><use width="10" height="2" transform="translate(954.79 249.96) scale(0.29 0.16)" xlink:href="#New_Symbol_2"/><use width="10" height="2" transform="translate(972.17 249.98) scale(0.29 0.16)" xlink:href="#New_Symbol_2"/><use width="10" height="2" transform="translate(1029.74 248.41) scale(0.3 0.17)" xlink:href="#New_Symbol_2"/><use width="10" height="2" transform="translate(1051.32 246.97) scale(0.27 0.16)" xlink:href="#New_Symbol_2"/><use width="10" height="2" transform="translate(1057.68 246.96) scale(0.31 0.17)" xlink:href="#New_Symbol_2"/><use width="10" height="2" transform="translate(514.82 254.17) scale(0.33 0.19)" xlink:href="#New_Symbol_2"/><use width="10" height="2" transform="translate(490.76 254.47) scale(0.29 0.16)" xlink:href="#New_Symbol_2"/><use width="10" height="2" transform="translate(482.11 253.99) scale(0.33 0.19)" xlink:href="#New_Symbol_2"/><use width="10" height="2" transform="translate(498.82 253.3) scale(0.29 0.17)" xlink:href="#New_Symbol_2"/><use width="10" height="2" transform="translate(496.86 250.85) scale(0.38 0.21)" xlink:href="#New_Symbol_2"/><use width="10" height="2" transform="translate(442.46 253.47) scale(0.19 0.11)" xlink:href="#New_Symbol_2"/><use width="10" height="2" transform="translate(431.83 253.61) scale(0.08 0.04)" xlink:href="#New_Symbol_2"/><use width="10" height="2" transform="translate(507.85 253.77) scale(0.29 0.16)" xlink:href="#New_Symbol_2"/><use width="10" height="2" transform="translate(526.19 253.66) scale(0.42 0.24)" xlink:href="#New_Symbol_2"/><use width="10" height="2" transform="translate(462.75 255.45) scale(0.27 0.15)" xlink:href="#New_Symbol_2"/><use width="10" height="2" transform="translate(434.77 256.94) scale(0.1 0.06)" xlink:href="#New_Symbol_2"/><use width="10" height="2" transform="translate(434.66 255.79) scale(0.09 0.05)" xlink:href="#New_Symbol_2"/><use width="10" height="2" transform="translate(428.66 257.12) scale(0.06 0.04)" xlink:href="#New_Symbol_2"/><use width="10" height="2" transform="translate(397.76 256.77) scale(0.22 0.12)" xlink:href="#New_Symbol_2"/><use width="10" height="2" transform="translate(317.41 297.38) scale(0.23 0.35)" xlink:href="#New_Symbol_2"/><use width="10" height="2" transform="translate(320.63 285.46) scale(0.17 0.25)" xlink:href="#New_Symbol_2"/><use width="10" height="2" transform="translate(322 292.59) scale(0.15 0.23)" xlink:href="#New_Symbol_2"/><use width="10" height="2" transform="translate(315.69 286.09) scale(0.24 0.36)" xlink:href="#New_Symbol_2"/><use width="10" height="2" transform="translate(310.49 294.48) scale(0.31 0.47)" xlink:href="#New_Symbol_2"/><use width="10" height="2" transform="translate(307.23 284.72) scale(0.4 0.6)" xlink:href="#New_Symbol_2"/><use width="10" height="2" transform="translate(317.29 291.58) scale(0.19 0.28)" xlink:href="#New_Symbol_2"/><use width="10" height="2" transform="translate(314.06 279.11) scale(0.33 0.5)" xlink:href="#New_Symbol_2"/><use width="10" height="2" transform="translate(327.05 291.24) scale(0.11 0.16)" xlink:href="#New_Symbol_2"/><use width="10" height="2" transform="translate(339.46 291.05) scale(0.09 0.14)" xlink:href="#New_Symbol_2"/><use width="10" height="2" transform="translate(343.06 291.5) scale(0.12 0.18)" xlink:href="#New_Symbol_2"/><use width="10" height="2" transform="translate(369.01 288.93) scale(0.25 0.38)" xlink:href="#New_Symbol_2"/><use width="10" height="2" transform="translate(368.77 295.31) scale(0.24 0.36)" xlink:href="#New_Symbol_2"/><use width="10" height="2" transform="translate(384.67 292.68) scale(0.24 0.36)" xlink:href="#New_Symbol_2"/><use width="10" height="2" transform="translate(384.17 284.55) scale(0.29 0.43)" xlink:href="#New_Symbol_2"/><use width="10" height="2" transform="translate(379.34 290.15) scale(0.25 0.37)" xlink:href="#New_Symbol_2"/><use width="10" height="2" transform="translate(329.2 282.73) scale(0.14 0.22)" xlink:href="#New_Symbol_2"/><use width="10" height="2" transform="translate(319.72 274.38) scale(0.31 0.46)" xlink:href="#New_Symbol_2"/><use width="10" height="2" transform="translate(330.39 275.96) scale(0.24 0.37)" xlink:href="#New_Symbol_2"/><use width="10" height="2" transform="translate(370.8 276.78) scale(0.41 0.61)" xlink:href="#New_Symbol_2"/><use width="10" height="2" transform="translate(397.87 282.35) scale(0.35 0.52)" xlink:href="#New_Symbol_2"/><use width="10" height="2" transform="translate(401.36 275.19) scale(0.47 0.72)" xlink:href="#New_Symbol_2"/><use width="10" height="2" transform="translate(448.58 273.49) scale(0.47 0.72)" xlink:href="#New_Symbol_2"/><use width="10" height="2" transform="translate(463.98 281.67) scale(0.37 0.57)" xlink:href="#New_Symbol_2"/><use width="10" height="2" transform="translate(471.46 276) scale(0.39 0.59)" xlink:href="#New_Symbol_2"/><use width="10" height="2" transform="translate(464.12 272.3) scale(0.45 0.68)" xlink:href="#New_Symbol_2"/><use width="10" height="2" transform="translate(411.56 279.27) scale(0.49 0.74)" xlink:href="#New_Symbol_2"/><use width="10" height="2" transform="translate(362.23 276.72) scale(0.42 0.64)" xlink:href="#New_Symbol_2"/><use width="10" height="2" transform="translate(354.08 276.58) scale(0.37 0.56)" xlink:href="#New_Symbol_2"/><use width="10" height="2" transform="translate(357.3 283.91) scale(0.26 0.39)" xlink:href="#New_Symbol_2"/><use width="10" height="2" transform="translate(454.24 288.69) scale(0.38 0.58)" xlink:href="#New_Symbol_2"/><use width="10" height="2" transform="translate(491.84 288.17) scale(0.24 0.37)" xlink:href="#New_Symbol_2"/><use width="10" height="2" transform="translate(514.38 295.13) scale(0.26 0.39)" xlink:href="#New_Symbol_2"/><use width="10" height="2" transform="translate(523.31 290.99) scale(0.26 0.39)" xlink:href="#New_Symbol_2"/><use width="10" height="2" transform="translate(526.31 296.83) scale(0.27 0.4)" xlink:href="#New_Symbol_2"/><use width="10" height="2" transform="translate(446.86 301.6) scale(0.45 0.69)" xlink:href="#New_Symbol_2"/><use width="10" height="2" transform="translate(399.35 299.42) scale(0.3 0.45)" xlink:href="#New_Symbol_2"/><use width="10" height="2" transform="translate(350.1 300.1) scale(0.17 0.26)" xlink:href="#New_Symbol_2"/><use width="10" height="2" transform="translate(299.91 297.42) scale(0.5 0.76)" xlink:href="#New_Symbol_2"/><use width="10" height="2" transform="translate(289.18 295.83) scale(0.65 0.99)" xlink:href="#New_Symbol_2"/><use width="10" height="2" transform="translate(242.36 299.4) scale(0.42 0.63)" xlink:href="#New_Symbol_2"/><use width="10" height="2" transform="translate(241.69 291.34) scale(0.44 0.67)" xlink:href="#New_Symbol_2"/><use width="10" height="2" transform="translate(252.26 293.29) scale(0.47 0.71)" xlink:href="#New_Symbol_2"/><use width="10" height="2" transform="translate(336.73 299.08) scale(0.13 0.19)" xlink:href="#New_Symbol_2"/><use width="10" height="2" transform="translate(415.44 296.59) scale(0.42 0.64)" xlink:href="#New_Symbol_2"/><use width="10" height="2" transform="translate(441.15 293.78) scale(0.4 0.6)" xlink:href="#New_Symbol_2"/><use width="10" height="2" transform="translate(511.43 286.8) scale(0.26 0.39)" xlink:href="#New_Symbol_2"/><use width="10" height="2" transform="translate(540.36 286.94) scale(0.21 0.32)" xlink:href="#New_Symbol_2"/><use width="10" height="2" transform="translate(575.19 287.29) scale(0.32 0.48)" xlink:href="#New_Symbol_2"/><use width="10" height="2" transform="translate(545.58 287.38) scale(0.17 0.26)" xlink:href="#New_Symbol_2"/><use width="10" height="2" transform="translate(432.66 286.59) scale(0.45 0.67)" xlink:href="#New_Symbol_2"/><use width="10" height="2" transform="translate(361.38 293.26) scale(0.21 0.32)" xlink:href="#New_Symbol_2"/><use width="10" height="2" transform="translate(341.02 281.73) scale(0.18 0.27)" xlink:href="#New_Symbol_2"/><use width="10" height="2" transform="translate(341.28 286.56) scale(0.12 0.19)" xlink:href="#New_Symbol_2"/><use width="10" height="2" transform="translate(445.18 282.87) scale(0.4 0.61)" xlink:href="#New_Symbol_2"/><use width="10" height="2" transform="translate(477.25 289.61) scale(0.31 0.47)" xlink:href="#New_Symbol_2"/><use width="10" height="2" transform="translate(480.2 283.31) scale(0.3 0.45)" xlink:href="#New_Symbol_2"/><use width="14" height="5" transform="translate(496.07 257.25) scale(0.14 0.12)" xlink:href="#New_Symbol_1"/><use width="14" height="5" transform="translate(513.74 254) scale(0.16 0.14)" xlink:href="#New_Symbol_1"/><use width="14" height="5" transform="translate(511.71 256.75) scale(0.27 0.23)" xlink:href="#New_Symbol_1"/><use width="14" height="5" transform="translate(496.39 253.29) scale(0.06 0.05)" xlink:href="#New_Symbol_1"/><use width="14" height="5" transform="translate(501.82 251.98) scale(0.06 0.05)" xlink:href="#New_Symbol_1"/><use width="14" height="5" transform="translate(513.6 250.43) scale(0.11 0.09)" xlink:href="#New_Symbol_1"/><use width="14" height="5" transform="translate(522.57 249.23) scale(0.14 0.12)" xlink:href="#New_Symbol_1"/><use width="14" height="5" transform="translate(550.29 249.08) scale(0.1 0.08)" xlink:href="#New_Symbol_1"/><use width="14" height="5" transform="translate(577.45 248.71) scale(0.06 0.05)" xlink:href="#New_Symbol_1"/><use width="14" height="5" transform="translate(579.53 248.48) scale(0.06 0.05)" xlink:href="#New_Symbol_1"/><use width="14" height="5" transform="translate(544.88 249.06) scale(0.1 0.09)" xlink:href="#New_Symbol_1"/><use width="14" height="5" transform="translate(506 247.68) scale(0.08 0.07)" xlink:href="#New_Symbol_1"/><use width="14" height="5" transform="translate(484.41 248.95) scale(0.04 0.03)" xlink:href="#New_Symbol_1"/><use width="14" height="5" transform="translate(498.06 248.95) scale(0.05 0.04)" xlink:href="#New_Symbol_1"/><use width="14" height="5" transform="translate(471.88 250.36) scale(0.07 0.06)" xlink:href="#New_Symbol_1"/><use width="14" height="5" transform="translate(489.23 251.3) scale(0.04 0.03)" xlink:href="#New_Symbol_1"/><use width="14" height="5" transform="translate(475.89 252.92) scale(0.05 0.04)" xlink:href="#New_Symbol_1"/><use width="14" height="5" transform="translate(482.84 253.29) scale(0.04 0.04)" xlink:href="#New_Symbol_1"/><use width="14" height="5" transform="translate(440.14 251.14) scale(0.27 0.23)" xlink:href="#New_Symbol_1"/><use width="14" height="5" transform="translate(465.55 251.26) scale(0.11 0.09)" xlink:href="#New_Symbol_1"/><use width="14" height="5" transform="translate(452.18 249.88) scale(0.24 0.2)" xlink:href="#New_Symbol_1"/><use width="14" height="5" transform="translate(503.14 254.35) scale(0.12 0.1)" xlink:href="#New_Symbol_1"/><use width="14" height="5" transform="translate(419.73 252.98) scale(0.15 0.12)" xlink:href="#New_Symbol_1"/><use width="14" height="5" transform="translate(445.14 254.94) scale(0.26 0.22)" xlink:href="#New_Symbol_1"/><use width="14" height="5" transform="translate(450.39 255.87) scale(0.28 0.24)" xlink:href="#New_Symbol_1"/><use width="14" height="5" transform="translate(464.62 256.09) scale(0.14 0.12)" xlink:href="#New_Symbol_1"/><use width="14" height="5" transform="translate(413.36 257.77) scale(0.16 0.13)" xlink:href="#New_Symbol_1"/><use width="14" height="5" transform="translate(544.66 258.25) scale(0.1 0.09)" xlink:href="#New_Symbol_1"/><use width="14" height="5" transform="translate(566.56 258.45) scale(0.17 0.14)" xlink:href="#New_Symbol_1"/><use width="14" height="5" transform="translate(583.85 256.35) scale(0.13 0.11)" xlink:href="#New_Symbol_1"/><use width="14" height="5" transform="translate(565.02 254.9) scale(0.1 0.08)" xlink:href="#New_Symbol_1"/><use width="14" height="5" transform="translate(588.92 251.38) scale(0.08 0.07)" xlink:href="#New_Symbol_1"/><use width="14" height="5" transform="translate(553.63 252.72) scale(0.08 0.07)" xlink:href="#New_Symbol_1"/><use width="14" height="5" transform="translate(595.39 252.1) scale(0.12 0.1)" xlink:href="#New_Symbol_1"/><use width="14" height="5" transform="translate(604.47 251.85) scale(0.23 0.2)" xlink:href="#New_Symbol_1"/><use width="14" height="5" transform="translate(579.46 254.75) scale(0.1 0.09)" xlink:href="#New_Symbol_1"/><use width="14" height="5" transform="translate(458.61 254.79) scale(0.18 0.15)" xlink:href="#New_Symbol_1"/><use width="14" height="5" transform="translate(534.73 260.79) scale(0.18 0.15)" xlink:href="#New_Symbol_1"/><use width="14" height="5" transform="translate(479.39 261.28) scale(0.16 0.14)" xlink:href="#New_Symbol_1"/><use width="14" height="5" transform="translate(494.55 248.63) scale(0.04 0.04)" xlink:href="#New_Symbol_1"/><use width="14" height="5" transform="translate(502.04 244.48) scale(0.1 0.08)" xlink:href="#New_Symbol_1"/><use width="14" height="5" transform="translate(492.21 245.33) scale(0.06 0.05)" xlink:href="#New_Symbol_1"/><use width="14" height="5" transform="translate(495.67 244.66) scale(0.08 0.07)" xlink:href="#New_Symbol_1"/><use width="14" height="5" transform="translate(474.68 245.31) scale(0.09 0.08)" xlink:href="#New_Symbol_1"/><use width="14" height="5" transform="translate(486.34 242.85) scale(0.11 0.09)" xlink:href="#New_Symbol_1"/><use width="14" height="5" transform="translate(479.38 243.13) scale(0.11 0.09)" xlink:href="#New_Symbol_1"/><use width="14" height="5" transform="translate(546.49 243.47) scale(0.19 0.16)" xlink:href="#New_Symbol_1"/><use width="14" height="5" transform="translate(567.1 244.21) scale(0.09 0.08)" xlink:href="#New_Symbol_1"/><use width="14" height="5" transform="translate(579.44 243.17) scale(0.09 0.07)" xlink:href="#New_Symbol_1"/><use width="0.5" height="4.91" transform="translate(1092.77 303.91) scale(1.73)" xlink:href="#New_Symbol"/><use width="0.5" height="4.91" transform="translate(1074.82 311.79) scale(1.92)" xlink:href="#New_Symbol"/><use width="0.5" height="4.91" transform="translate(1068.76 328.75) scale(2.2)" xlink:href="#New_Symbol"/><use width="0.5" height="4.91" transform="translate(1043.2 330.07)" xlink:href="#New_Symbol"/><use width="0.5" height="4.91" transform="translate(1022.54 334.03) scale(1.35)" xlink:href="#New_Symbol"/><use width="0.5" height="4.91" transform="translate(1018.78 313.56) scale(1.65)" xlink:href="#New_Symbol"/><use width="0.5" height="4.91" transform="translate(1022.5 306.74) scale(1.4)" xlink:href="#New_Symbol"/><use width="0.5" height="4.91" transform="translate(1019.47 327.23) scale(1.6)" xlink:href="#New_Symbol"/><use width="0.5" height="4.91" transform="translate(1018.84 348.66) scale(1.12)" xlink:href="#New_Symbol"/><use width="0.5" height="4.91" transform="translate(1032.14 319.48) scale(1.14)" xlink:href="#New_Symbol"/><use width="0.5" height="4.91" transform="translate(1033.5 306.54) scale(1.04)" xlink:href="#New_Symbol"/><use width="0.5" height="4.91" transform="translate(1035.44 333.87) scale(1.02)" xlink:href="#New_Symbol"/><use width="0.5" height="4.91" transform="translate(1043.76 347.7)" xlink:href="#New_Symbol"/><use width="0.5" height="4.91" transform="translate(1081.48 284.43) scale(1.06)" xlink:href="#New_Symbol"/><use width="0.5" height="4.91" transform="translate(1085.08 313.38) scale(2.6)" xlink:href="#New_Symbol"/><use width="0.5" height="4.91" transform="translate(1090.03 330.21) scale(3.78)" xlink:href="#New_Symbol"/><use width="0.5" height="4.91" transform="translate(1108.77 286.87) scale(1.01)" xlink:href="#New_Symbol"/><use width="0.5" height="4.91" transform="translate(1110.22 343.16) scale(1.97)" xlink:href="#New_Symbol"/><use width="0.5" height="4.91" transform="translate(1118.06 345.5) scale(1.42)" xlink:href="#New_Symbol"/><use width="0.5" height="4.91" transform="translate(1121.19 323.45) scale(1.25)" xlink:href="#New_Symbol"/><use width="0.5" height="4.91" transform="translate(1127.47 351.55) scale(1.05)" xlink:href="#New_Symbol"/><use width="0.5" height="4.91" transform="translate(1127.99 333.94) scale(1.05)" xlink:href="#New_Symbol"/><use width="0.5" height="4.91" transform="translate(1070.55 355.13) scale(1.9)" xlink:href="#New_Symbol"/><use width="0.5" height="4.91" transform="translate(990.27 326.87) scale(2.31)" xlink:href="#New_Symbol"/><use width="0.5" height="4.91" transform="translate(991.27 301.06) scale(1.99)" xlink:href="#New_Symbol"/><use width="0.5" height="4.91" transform="translate(975.79 332.56) scale(1.58)" xlink:href="#New_Symbol"/><use width="0.5" height="4.91" transform="translate(972.54 300.97) scale(1.39)" xlink:href="#New_Symbol"/><use width="0.5" height="4.91" transform="translate(953.69 349.36) scale(1.07)" xlink:href="#New_Symbol"/><use width="0.5" height="4.91" transform="translate(955.54 319.68) scale(1.26)" xlink:href="#New_Symbol"/><use width="0.5" height="4.91" transform="translate(944.28 319.28) scale(1.43)" xlink:href="#New_Symbol"/><use width="0.5" height="4.91" transform="translate(935.21 335.99) scale(1.35)" xlink:href="#New_Symbol"/><use width="0.5" height="4.91" transform="translate(937.93 308.63) scale(1.47)" xlink:href="#New_Symbol"/><use width="0.5" height="4.91" transform="translate(946.53 329.33) scale(1.35)" xlink:href="#New_Symbol"/><use width="0.5" height="4.91" transform="translate(946.38 290.41) scale(1.14)" xlink:href="#New_Symbol"/><use width="0.5" height="4.91" transform="translate(936.6 324.5) scale(1.48)" xlink:href="#New_Symbol"/><use width="0.5" height="4.91" transform="translate(952.51 281.18) scale(1.04)" xlink:href="#New_Symbol"/><use width="0.5" height="4.91" transform="translate(958.93 339.38) scale(1.11)" xlink:href="#New_Symbol"/><use width="0.5" height="4.91" transform="translate(979.24 286.72) scale(1.11)" xlink:href="#New_Symbol"/><use width="0.5" height="4.91" transform="translate(987.94 311.16) scale(2.39)" xlink:href="#New_Symbol"/><use width="0.5" height="4.91" transform="translate(1000.58 328.79) scale(2.26)" xlink:href="#New_Symbol"/><use width="0.5" height="4.91" transform="translate(1011.86 297.96) scale(1.53)" xlink:href="#New_Symbol"/><use width="0.5" height="4.91" transform="translate(1025.57 342.82) scale(1.11)" xlink:href="#New_Symbol"/><use width="0.5" height="4.91" transform="translate(1042.26 288.6)" xlink:href="#New_Symbol"/><use width="0.5" height="4.91" transform="translate(1052.62 367.42) scale(1.07)" xlink:href="#New_Symbol"/><use width="0.5" height="4.91" transform="translate(1074.95 292.08) scale(1.18)" xlink:href="#New_Symbol"/><use width="0.5" height="4.91" transform="translate(1080.7 295.97) scale(1.35)" xlink:href="#New_Symbol"/><g class="cls-16"><path class="cls-17" d="M339.52,258c17.39,0,34.66-.36,51.94-2.78a151.74,151.74,0,0,1,20.12-1.3c4.81,0,9.35-1.22,14.16-1.52-7.18-2.84-17.08-2.57-24.7-2.57-6.48,0-13,.13-19.44,0,.74.29,1.12.87,1.72,1.25-2.15,3.17-13.7,1.21-17.54,1.38-4.49.21-8.87,1.24-13.28,2.06-9.29,1.73-20.27-1-29,2.73,6.39-.1,12.83-.11,19.25-.11"/></g><use width="0.5" height="4.91" transform="translate(311.03 245.84) scale(0.79 0.78)" xlink:href="#New_Symbol"/><use width="0.5" height="4.91" transform="translate(347.85 245.91) scale(0.47 0.47)" xlink:href="#New_Symbol"/><use width="0.5" height="4.91" transform="translate(427.26 248.83) scale(0.41 0.4)" xlink:href="#New_Symbol"/><use width="0.5" height="4.91" transform="translate(321.16 253.28) scale(0.77 0.76)" xlink:href="#New_Symbol"/><use width="0.5" height="4.91" transform="translate(335.35 250.77) scale(0.61 0.6)" xlink:href="#New_Symbol"/><use width="0.5" height="4.91" transform="translate(345.55 252.26) scale(0.47 0.46)" xlink:href="#New_Symbol"/><use width="0.5" height="4.91" transform="translate(349.83 251.07) scale(0.4 0.39)" xlink:href="#New_Symbol"/><use width="0.5" height="4.91" transform="translate(357.45 249.53) scale(0.37 0.36)" xlink:href="#New_Symbol"/><use width="0.5" height="4.91" transform="translate(371.36 245.46) scale(0.42 0.42)" xlink:href="#New_Symbol"/><use width="0.5" height="4.91" transform="translate(387.38 246.2) scale(0.44 0.44)" xlink:href="#New_Symbol"/><use width="0.5" height="4.91" transform="translate(374.74 248.96) scale(0.37 0.36)" xlink:href="#New_Symbol"/><use width="0.5" height="4.91" transform="translate(379.07 248.76) scale(0.4 0.4)" xlink:href="#New_Symbol"/><use width="0.5" height="4.91" transform="translate(373.46 252.48) scale(0.36 0.36)" xlink:href="#New_Symbol"/><use width="0.5" height="4.91" transform="translate(370.44 254.22) scale(0.36 0.36)" xlink:href="#New_Symbol"/><use width="0.5" height="4.91" transform="translate(378 255.69) scale(0.39 0.38)" xlink:href="#New_Symbol"/><use width="0.5" height="4.91" transform="translate(379.79 253.22) scale(0.39 0.38)" xlink:href="#New_Symbol"/><use width="0.5" height="4.91" transform="translate(390.01 249.76) scale(0.42 0.42)" xlink:href="#New_Symbol"/><use width="0.5" height="4.91" transform="translate(397.35 245.78) scale(0.43 0.42)" xlink:href="#New_Symbol"/><use width="0.5" height="4.91" transform="translate(399.9 248) scale(0.38 0.38)" xlink:href="#New_Symbol"/><g class="cls-16"><path class="cls-17" d="M846.74,265.16c-21.74,0-43.42.53-65.16.49a216.34,216.34,0,0,0-22.89,1c-4.78.49-10.76,1.93-15.09,5.4,4.36,2.39,10.32.48,15,.48,6.39,0,13.57-2,19.91-.87-2.92,1.73-7.1.38-10.23.38-5.53,0-11.6,1.12-17-.21,3.42-4.36,10.46-2.26,14.37-2.24,7.7,0,15.41,0,23.12,0,7.15,0,14.37-.06,21.46-.52,8-.51,16-.44,23.91-1,5.68-.39,11.88.51,17.42-2.42"/></g></svg>