<svg id="Layer_1" data-name="Layer 1" xmlns="http://www.w3.org/2000/svg" viewBox="0 0 99.65 97.89"><defs><style>.cls-1{fill:none;stroke-linecap:round;stroke-width:4.63px;}.cls-1,.cls-3,.cls-4{stroke:#2f6b8e;stroke-miterlimit:10;}.cls-2{fill:#2f6b8e;}.cls-3,.cls-4{fill:#fff;stroke-width:4px;}.cls-3{opacity:0.3;}</style></defs><title>rotate</title><path class="cls-1" d="M74.48,7.73A10.85,10.85,0,0,1,85.33,18.58"/><polygon class="cls-2" points="85.33 28.52 91.53 17.79 79.14 17.79 85.33 28.52"/><rect class="cls-3" x="-9.72" y="20.18" width="88.43" height="58.02" rx="4" ry="4" transform="translate(83.68 14.7) rotate(90)"/><rect class="cls-4" x="5.48" y="35.39" width="88.43" height="58.02" rx="4" ry="4"/><path class="cls-2" d="M30.21,55.4l-17,29.42a2.35,2.35,0,0,0,2,3.52h34a2.34,2.34,0,0,0,2-3.52l-17-29.42A2.35,2.35,0,0,0,30.21,55.4Z"/><path class="cls-2" d="M58.16,44.77,35,84.82a2.34,2.34,0,0,0,2,3.52H83.31a2.35,2.35,0,0,0,2-3.52l-23.13-40A2.35,2.35,0,0,0,58.16,44.77Z"/></svg>