<svg id="Layer_1" data-name="Layer 1" xmlns="http://www.w3.org/2000/svg" viewBox="0 0 593.83 162"><defs><style>.cls-1,.cls-4{fill:none;stroke:#000;stroke-miterlimit:10;}.cls-1{stroke-width:0.33px;}.cls-2{font-size:7px;font-family:ArialMT, Arial;}.cls-3{letter-spacing:-0.04em;}</style></defs><title>steps</title><path d="M0,110.84c.26-1.71.55-3.42.78-5.14.5-3.71,1.09-7.4,1.41-11.12A41.14,41.14,0,0,0,2,88.72a17.76,17.76,0,0,1-.19-3.15C1.85,85,2.56,84.49,3,84l.6.16A14,14,0,0,1,3,81.52c0-1.23.19-2.46.29-3.7,1.22.33,2.45.64,3.66,1a3.07,3.07,0,0,1,.59.33c.09-1.35.1-2.61.29-3.85,1-6.15,4.54-10.59,9.06-14.63,2-1.77,3.2-4.41,4.68-6.71.09-.15-.48-1-.81-1.09-1.36-.17-1.79-.59-1-1.91.16-.28-.28-1-.57-1.41-2-3-1.43-5.91-.44-9.14,1.08-3.52,3.82-4.42,6.66-5.5.65-.24,1.27-.59,1.9-.88h3.84c2.16,1.39,4.27,2.88,6.52,4.11.86.47,2.23.12,2,1.76A10.5,10.5,0,0,1,39.22,43c-1.73,3.67-1.6,4.22.32,6.1.37.37.37,1.13.54,1.7l-1.3.26c-.44,1.27-1.16,2.39-1.14,3.5,0,2.61-1.53,2.69-3.37,2.53a14,14,0,0,1-1.89-.38L31,59.91c.63,1.79,1.66,3.38,1.65,5,0,3.56,1.28,6.68,2.22,10,1.23,4.37,1.49,9,2.18,13.67a19.18,19.18,0,0,1,3.79.31,5.75,5.75,0,0,0,5-.85A16.62,16.62,0,0,1,49,86.38c2.24-.85,6.33.32,7.06,2.35.57,1.58,1.4,1.69,2.67,1.63,2.3-.11,4.49-.83,6.94-.23,1.1.27,2.77-.76,4.42-.55A2.86,2.86,0,0,1,72.93,92a2.13,2.13,0,0,1-2.36,2.56q-9.91.06-19.84,0c-2.12,0-2.42-.56-1.5-2.5-1.08.72-2.06,1.87-3.14,2-1.92.17-2.22,1-1.79,2.34l-4.19,1.3A46.19,46.19,0,0,1,44.85,101a10.06,10.06,0,0,0,6.27,2.36,90.74,90.74,0,0,1,12.56,2.12c3.63.83,5,3.5,3.84,7.14-.41,1.29-1.4,2.39-2,3.65-1.46,3.38-2.78,6.81-4.26,10.17-.27.61-1,1.43-1.54,1.45-4,.12-7.91.07-12.58.07q1.71-5.53,3-9.72H37.63c-.07,5.44-2.15,7.21-7.24,6.79a41.88,41.88,0,0,0-4.3,0c-1,1.32-1.47,2.73-2.2,2.86a34.84,34.84,0,0,1-6,.11l.67-2.83-.63-.45c-.54.58-1.08,1.17-1.61,1.76s-.89,1.41-1.4,1.46c-1.81.18-3.64.07-5.73.07.72-2-.35-2.53-1.74-2.93C4,124,1.1,122.28,0,118.52ZM11.89,103c.1-.75-.53-1.61-1-2.79a7.83,7.83,0,0,1-1.12,1.48c-.52.36-1.38.94-1.67.76a3.11,3.11,0,0,1-1.29-1.84c-.74-4-1.35-8-2.37-12.13a6,6,0,0,0-.2,1.24c.25,5.69-.85,11.2-1.86,16.78-.7,3.87-1.4,7.89,0,11.93,1,3,3,4.21,6,4.78-5.15-5.58-4.11-10.76,1.84-11.25C10.81,108.91,11.46,106,11.89,103Z"/><path d="M115.68,95.9a10.32,10.32,0,0,0-2.7-.82c-21.54,0-43.08,0-64.62,0-1.71,0-2.87.48-3.12,2.34C45,99.52,46.75,99.6,48,100.12a4.58,4.58,0,0,0,1.7,0H73.8V127.8h3.78V100.32h29.1v27.49h3.78V100.63l5.22-1.31Z"/><path d="M95.3,80.37c-3.21.57-6.72-.5-9.1,3.08h18.43c-.22-1.73-1.58-2.08-2.75-2.66a3.52,3.52,0,0,1-1.59-1.12c-.88-1.62-1.59-3.32-2.3-5a3,3,0,0,1-.26-1.61,1.8,1.8,0,0,0-1.54-2.34c-1.06-.27-1.64-1.08-.84-1.84,4-3.75,3-8.81,3.56-13.39.48-3.58.5-7.23.68-10.84.2-4.1-3.74-8.49-7.71-8.38-.43,13.49-.86,27-1.3,40.77l3.77-.45Z"/><path d="M113.12,94.55c0-3,0-5.88,0-8.72,0-1.36-.61-1.92-2.07-1.91-9.15.06-18.3,0-27.45,0-2,0-2.89.87-2.91,2.94,0,1.77,0,3.54,0,5.54h4.23v.46h-4.1l-.25.65c.7.36,1.39,1,2.08,1,9.66.07,19.31.05,29,.05C112,94.62,112.44,94.58,113.12,94.55Z"/><line class="cls-1" x1="43.58" y1="46.5" x2="61.53" y2="46.5"/><line class="cls-1" x1="68.54" y1="46.5" x2="86.48" y2="46.5"/><text class="cls-2" transform="translate(62.86 48.19)">1<tspan class="cls-3" x="3.89" y="0">’</tspan></text><line class="cls-4" x1="138.94" x2="138.94" y2="162"/><line class="cls-4" x1="291.83" x2="291.83" y2="162"/><line class="cls-4" x1="444.72" x2="444.72" y2="162"/><path d="M197.75,71.3c.48,0,1-.07,1.44-.15a5.94,5.94,0,0,0,1.41-.35c1.08-.48,2.12-1,3.32-1.63-.73-.8-1-2.06-2.25-2.61-.34.53-.64,1.06-1,1.54a3.64,3.64,0,0,1-3.6,1.7c-1-.15-2.06-.27-3.07-.5a2.28,2.28,0,0,1-1.75-1.91c-.25-1.11-.69-1.42-1.8-1.16a8.61,8.61,0,0,0-1.06.38c.56,2.53,2.52,3.42,4.6,4.2a4.45,4.45,0,0,1-4-1c-.41.8-.41.8.69,2.5a9,9,0,0,1-3.54-2.36,10,10,0,0,0-1.42-1.34,2.51,2.51,0,0,0-2.86-.34l-.18-.2c.13-.47.13-1.06.43-1.37a11.53,11.53,0,0,1,2.57-2.17,21.59,21.59,0,0,1,9.21-2.31,30.64,30.64,0,0,0,3.58-.41,4.44,4.44,0,0,0,1.21-.68c-.31-.35-.56-.83-.94-1-3.95-2-8-3.21-12.51-2-1.44.39-2.9.68-4.37,1a15.62,15.62,0,0,1,7.63-2.57,20.61,20.61,0,0,1,11.15,2.22c1.58.82,3.47,1,5.19,1.59A17.64,17.64,0,0,1,209,61.53a26.24,26.24,0,0,1,2.95,2.09,1.75,1.75,0,0,1,.63.83c.77,2.81.38,5.64.19,8.46l-.32.06a21.35,21.35,0,0,1-.65-2.16c-.5-2.69-2.82-3.24-4.91-3a1.05,1.05,0,0,0-.5.9,13.4,13.4,0,0,0,1,1.93c-.65.49-1.35.1-2-.06l-1.51-.35a2.27,2.27,0,0,0-2.27.73C200.4,72.07,199,71.68,197.75,71.3Z"/><path d="M236.07,70c-.15,0-.27,0-.33,0-.68.51-1.34,1-2,1.56.47.59.91,1.2,1.42,1.75a5.06,5.06,0,0,0,1,.65c-2.19.08-3.92-1.87-6.17-1.1l-.25-.17c.37-.82.79-1.63,1.11-2.47.18-.48.43-1.16.23-1.47a1.85,1.85,0,0,0-1.44-.49,19.44,19.44,0,0,0-2.5.41,2,2,0,0,1-.52-.09c1.4-2.87,3.32-5,6.58-5.42,4.26-.6,8.52-1.18,12.77-1.79a9.06,9.06,0,0,1,5.08.61c2.21,1,4.33,2.22,6.49,3.35a3.56,3.56,0,0,1,.67.56c.08.08.12.2.08.44-.31-.22-.62-.42-.92-.64a11.3,11.3,0,0,0-8-2.55c-2.34.2-4.67.48-7,.78a7.31,7.31,0,0,0-1.58.57v.29a9.35,9.35,0,0,0,.92.38c1.89.59,3.8,1.11,5.67,1.78a7.89,7.89,0,0,1,4.67,3.63,4.08,4.08,0,0,1,.45,1.72c-2.48-3.3-6-4.8-9.74-5.78-.27-.07-.64.23-1.18.44a8.19,8.19,0,0,0,.83.44,5.89,5.89,0,0,0,.94.24,9.7,9.7,0,0,1,6.31,3.71A22.42,22.42,0,0,0,253,74.1c-1.09-.21-2.3-.49-3.53-.66a3.63,3.63,0,0,0-1.74.09,17.27,17.27,0,0,1-6.16,1.4c-.41,0-.81,0-1.39-.06a25.46,25.46,0,0,0,4.12-.88,6.64,6.64,0,0,0,2.13-1.85c.16-.18-.09-.73-.15-1.12a4.33,4.33,0,0,0-.88.38,8,8,0,0,1-5.17,1.74C238.14,73,236.55,72.17,236.07,70Z"/><path d="M212.15,143.68,216,144c1,.08,1,.06.91-.95-1.18-9.61-2.44-19.22-3.51-28.85-.51-4.56-.64-9.17-1-13.76-.31-4.07-.68-8.13-1-12.19a13.73,13.73,0,0,1,1.55-8c2.33-4.3,3.33-9,4-13.81.35-2.39.49-4.8.86-7.19q.83-5.48,1.85-10.93a79.51,79.51,0,0,0,1.68-11.79,2.79,2.79,0,0,0,0-.82c-.3-1-.63-2-1.74-2.33a2.51,2.51,0,0,0-2.67,1.06,7.15,7.15,0,0,0-1.94,5,13.81,13.81,0,0,1-.72,3.78c-.77,2.62-1.61,5.22-2.48,7.81a4.91,4.91,0,0,1-1.17,1.73,3.62,3.62,0,0,1,0-.57c.43-2.29.82-4.58,1.3-6.86a47.85,47.85,0,0,0,.63-10.07c0-2.22.19-4.45,0-6.65a13.51,13.51,0,0,0-1.15-4.15,2.43,2.43,0,0,0-4.18-.18,6.64,6.64,0,0,0-.85,2.54c-.36,3-.57,6-.92,9a62.19,62.19,0,0,1-2.3,11.52l.15-2c.06-.68.13-1.36.19-2,.46-5.16,1-10.32,1.36-15.49a76.48,76.48,0,0,0,0-7.72c0-1.42-2.31-2.56-3.63-1.81a5,5,0,0,0-1.62,1.47,11.48,11.48,0,0,0-2,6.4,29.18,29.18,0,0,1-.69,3.62c-.75,5.12-1.47,10.25-2.2,15.38,0,.24-.06.49-.1.79A1.89,1.89,0,0,1,193,44.63a12,12,0,0,1-.77-2.84c-.3-2.91-.62-5.83-.67-8.75,0-2.27.36-4.53.52-6.8a8.5,8.5,0,0,0-.69-4.42,2.63,2.63,0,0,0-4.37-.73,7.07,7.07,0,0,0-1.59,3.07c-.54,2.4-.82,4.86-1.18,7.3a63.14,63.14,0,0,0-.2,17.69c.54,4-.15,7.88-3,11-2.34,2.58-2.31,2.61-5,.35a40,40,0,0,1-4-4.64c-1.53-1.75-3-3.53-4.67-5.17a4.53,4.53,0,0,0-4.71-1.17c-1.79.54-2.7,2.29-1.67,3.81,2.27,3.33,3.35,7.23,5.43,10.65,3.41,5.6,6.85,11.16,11.44,15.91,1,1,1.73,2.26,2.63,3.37,2.33,2.88,2.75,6.31,2.75,9.83,0,6-.05,12.06,0,18.08A125.35,125.35,0,0,1,182.16,130c-.38,2.48-.95,4.94-1.36,7.42a13.93,13.93,0,0,0,0,2.33Z"/><path d="M374.73,50.3q-2.37,0-2.37,3.81a5.26,5.26,0,0,0,.61,2.81,1.93,1.93,0,0,0,1.72.95,2.11,2.11,0,0,0,1.69-.82,4.8,4.8,0,0,0,.69-3,5.57,5.57,0,0,0-.57-2.76A1.89,1.89,0,0,0,374.73,50.3Z"/><path d="M357,28.83,342.66,53.66,357,78.49h28.67L400,53.66,385.67,28.83Zm4,29.66a4.67,4.67,0,0,1-2.94.87,5.42,5.42,0,0,1-2.66-.64,3.16,3.16,0,0,1-1.52-2l1.79-.38c.22,1,1,1.52,2.48,1.52a2.54,2.54,0,0,0,1.51-.39,1.16,1.16,0,0,0,.52-1,1.38,1.38,0,0,0-.24-.78,1.73,1.73,0,0,0-1-.56l-2-.51a4.74,4.74,0,0,1-1.48-.59,2.4,2.4,0,0,1-.77-.94,3,3,0,0,1-.29-1.3,2.69,2.69,0,0,1,1-2.2,4,4,0,0,1,2.61-.83,4.68,4.68,0,0,1,2.35.58A2.58,2.58,0,0,1,361.72,51l-1.76.44a1.76,1.76,0,0,0-1.89-1.16,2.06,2.06,0,0,0-1.31.36,1.11,1.11,0,0,0-.45.91c0,.58.47,1,1.42,1.23l1.74.43a3.57,3.57,0,0,1,2.12,1.18,2.9,2.9,0,0,1,.54,1.71A2.82,2.82,0,0,1,361,58.49Zm9-7.94h-2.72V59.2h-2V50.55h-2.72V49H370Zm7.87,7.35a3.94,3.94,0,0,1-3.19,1.46,3.71,3.71,0,0,1-3.17-1.53,6.15,6.15,0,0,1-1.14-3.78,5.77,5.77,0,0,1,1.21-3.74,3.87,3.87,0,0,1,3.18-1.5,3.76,3.76,0,0,1,3.15,1.5,6,6,0,0,1,1.16,3.76A5.83,5.83,0,0,1,377.87,57.9ZM388.5,52a3,3,0,0,1-.94,2.28,3.39,3.39,0,0,1-2.37.86h-2.56V59.2h-1.84V49H385a3.51,3.51,0,0,1,2.65.9A3,3,0,0,1,388.5,52Z"/><path d="M382.63,50.5v3.06h2.18a1.83,1.83,0,0,0,1.3-.42,1.45,1.45,0,0,0,.45-1.11,1.52,1.52,0,0,0-.41-1.08,2,2,0,0,0-1.5-.45Z"/><path d="M387.75,25.23H354.93L338.51,53.66l16.42,28.42h32.82l16.41-28.42ZM386,79.13H356.63l-.09-.16L341.93,53.66l.09-.16,14.61-25.31H386l.1.16,14.61,25.31-.09.16Z"/><rect x="368.57" y="81.35" width="5.54" height="55.42"/><path d="M507.12,69h4.45c.1,0,.2,0,.3,0h2.38l.55,0h4.4a2,2,0,0,0,.24,0c3.45,0,6.89.06,10.32.36a43.21,43.21,0,0,1,6,.86,20.54,20.54,0,0,1,2.78.8c1,.4,2,.92,3.05,1.4a188.2,188.2,0,0,1,17.52,9.31,1.65,1.65,0,0,0,.83.26c1.73.15,3.46.27,5.18.47,2.69.32,5.37.66,8,1,3.22.46,6.42,1,9.59,1.78A32.29,32.29,0,0,1,588.19,87a4.27,4.27,0,0,1,1.8,1.17,15.56,15.56,0,0,1,2.87,5.75.44.44,0,0,0,.18.26,1.33,1.33,0,0,1,.69,1,6.72,6.72,0,0,1,.08,1.55c-.09,1.09-.36,2.17-.35,3.28,0,.9,0,1.8-.05,2.7a.35.35,0,0,1-.26.36L590,104.27a6.33,6.33,0,0,1-1.3.47c-1.69.24-3.4.43-5.1.64a30.85,30.85,0,0,0-5.72,1,.59.59,0,0,0-.38.31,8.36,8.36,0,0,1-3.65,4,11.27,11.27,0,0,1-8.68.87,10.29,10.29,0,0,1-6.83-5.28.32.32,0,0,0-.26-.12,6.88,6.88,0,0,0-.77.13,14.75,14.75,0,0,1-3.25.32c-1.28,0-2.56,0-3.84,0l-22-.22c-7.39-.07-14.77-.13-22.15-.22-.61,0-1,.1-1.29.67-.07.17-.21.2-.38.19l-3.45-.11a.25.25,0,0,0-.3.2,7.84,7.84,0,0,1-3.25,4,11.91,11.91,0,0,1-10.53,1.29,8.72,8.72,0,0,1-5.48-4.84c-.27-.57-.45-1.19-.68-1.81h-.44c-.52,0-1,0-1.56,0-2.19-.3-4.38-.63-6.57-.94s-4.52-.66-6.78-.92a5.22,5.22,0,0,1-2.74-1.07,6.73,6.73,0,0,1-2.32-2.45v-.17c.2-.25.4-.5.58-.77a.3.3,0,0,0,0-.21c-.12-1.19-.21-2.38-.37-3.57a5,5,0,0,1,.27-2.56,1.89,1.89,0,0,1,.93-1.07.3.3,0,0,0,.18-.32c0-1.4,0-2.8.07-4.2a24.34,24.34,0,0,1,.49-4.34,6.27,6.27,0,0,1,.8-2.12,1.57,1.57,0,0,1,1.24-.78c.63-.06,1.25-.16,1.88-.24l5.76-.75a5.87,5.87,0,0,0,2.28-.55c.54-.31,1.13-.54,1.7-.81,3.53-1.66,7.05-3.34,10.6-4.95A34.74,34.74,0,0,1,493,70.67c1.38-.33,2.8-.54,4.21-.77a78.82,78.82,0,0,1,8.13-.83Zm39.62,10-.28-.24c-1-.73-1.94-1.5-3-2.18A30.45,30.45,0,0,0,530,71.46c-2.71-.32-5.43-.42-8.16-.49l-.2,0c0,.11.06.2.09.29q1.65,4.66,3.28,9.33a2.49,2.49,0,0,0,2.37,1.78l9.23.39,7.53.31h.53c-1-1-1.29-1.82-.82-2.78A2.56,2.56,0,0,1,546.74,79Zm-46-6.88c.05.43.09.81.13,1.19.31,2.64.63,5.28.93,7.92,0,.23.1.3.32.3l7.18.25,8.84.29A3.09,3.09,0,0,0,519,82a1,1,0,0,0,.77-1.12,2.6,2.6,0,0,0-.05-.39L518,71.12c0-.19-.11-.24-.29-.24h-2.31a82.87,82.87,0,0,0-11.68.7C502.74,71.74,501.74,71.93,500.71,72.11Zm-17.1,30.63a7.27,7.27,0,1,0,7.26-7.26A7.24,7.24,0,0,0,483.61,102.74Zm84.84,6.35a7.27,7.27,0,1,0-7.27-7.25A7.27,7.27,0,0,0,568.45,109.09ZM499.91,72.34a1,1,0,0,0-.19,0,25.42,25.42,0,0,0-7.57,3.11,13.26,13.26,0,0,0-1.38,1,2.23,2.23,0,0,0-.69,2.63,2.94,2.94,0,0,0,2.85,2.13l6.28.2c.59,0,1.18,0,1.8,0ZM467.19,89.5c0-.11,0-.19.05-.27a17.79,17.79,0,0,0,0-3.72,10.65,10.65,0,0,0-.39-1.93,4.24,4.24,0,0,0-2.11-2.34c-.47-.28-.6-.29-.94.16a2.61,2.61,0,0,0-.37.62,10.5,10.5,0,0,0-.39,1.24,29.85,29.85,0,0,0-.5,5.58c0,.22,0,.44,0,.66Zm114.6,3.55h9.36a10.49,10.49,0,0,0-3-3.93.53.53,0,0,0-.28-.07l-3.32.25a1.66,1.66,0,0,0-1.48,1c-.25.58-.54,1.15-.82,1.73Zm-84.45-6.66h2.09c.45,0,.73-.23.74-.61s-.27-.65-.74-.65h-4.17c-.45,0-.73.25-.73.63s.28.63.73.63Zm30.25.73h2.11a.65.65,0,0,0,.73-.63.66.66,0,0,0-.71-.63h-4.23a.66.66,0,0,0-.71.63.65.65,0,0,0,.72.63Z"/></svg>