<svg id="Layer_1" data-name="Layer 1" xmlns="http://www.w3.org/2000/svg" viewBox="0 0 144 126"><defs><style>.cls-1{fill:#fff;}.cls-2{fill:#2f6b8e;}</style></defs><title>stop-sign</title><polygon class="cls-1" points="87.01 10.89 57.34 10.89 42.5 36.59 57.34 62.3 87.01 62.3 101.85 36.59 87.01 10.89"/><path class="cls-2" d="M75.26,33.48c-1.51,0-2.27,1.23-2.27,3.67a5.06,5.06,0,0,0,.58,2.7,1.85,1.85,0,0,0,1.66.92,2,2,0,0,0,1.62-.8,4.59,4.59,0,0,0,.66-2.87A5.31,5.31,0,0,0,77,34.45,1.82,1.82,0,0,0,75.26,33.48Z"/><path class="cls-2" d="M58.22,12.84,44.44,36.72,58.22,60.59H85.78L99.56,36.72,85.78,12.84Zm3.84,28.52a4.51,4.51,0,0,1-2.83.83,5.13,5.13,0,0,1-2.56-.61,3,3,0,0,1-1.46-1.91l1.72-.37c.21,1,1,1.47,2.38,1.47a2.41,2.41,0,0,0,1.45-.38,1.12,1.12,0,0,0,.51-.93,1.32,1.32,0,0,0-.23-.74,1.69,1.69,0,0,0-1-.54l-1.88-.49a4.89,4.89,0,0,1-1.43-.57,2.3,2.3,0,0,1-.73-.91A2.75,2.75,0,0,1,55.73,35a2.58,2.58,0,0,1,1-2.12,3.84,3.84,0,0,1,2.5-.79,4.57,4.57,0,0,1,2.27.55,2.49,2.49,0,0,1,1.27,1.57l-1.68.42a1.71,1.71,0,0,0-1.82-1.12,2,2,0,0,0-1.26.35,1.08,1.08,0,0,0-.44.88c0,.56.46.95,1.37,1.18l1.67.42a3.4,3.4,0,0,1,2,1.13,2.83,2.83,0,0,1,.52,1.64A2.72,2.72,0,0,1,62.06,41.36Zm8.66-7.63H68.1V42H66.2V33.73H63.59V32.21h7.13Zm7.56,7.06a3.76,3.76,0,0,1-3.07,1.4,3.59,3.59,0,0,1-3-1.47,5.9,5.9,0,0,1-1.09-3.63,5.58,5.58,0,0,1,1.16-3.59,3.73,3.73,0,0,1,3.06-1.44,3.62,3.62,0,0,1,3,1.44,5.78,5.78,0,0,1,1.11,3.62A5.58,5.58,0,0,1,78.28,40.79ZM88.5,35.13a2.85,2.85,0,0,1-.9,2.18,3.25,3.25,0,0,1-2.29.84H82.86V42H81.08V32.21h4a3.36,3.36,0,0,1,2.55.87A2.85,2.85,0,0,1,88.5,35.13Z"/><path class="cls-2" d="M82.86,33.68v3H85a1.78,1.78,0,0,0,1.26-.41,1.43,1.43,0,0,0,.43-1.07,1.5,1.5,0,0,0-.4-1,1.93,1.93,0,0,0-1.45-.43Z"/><path class="cls-2" d="M86.8,9.39H57.2a1.68,1.68,0,0,0-1.46.84L40.93,35.87a1.7,1.7,0,0,0,0,1.69L55.74,63.2A1.68,1.68,0,0,0,57.2,64H86.8a1.68,1.68,0,0,0,1.46-.84l14.81-25.64a1.7,1.7,0,0,0,0-1.69L88.26,10.23A1.68,1.68,0,0,0,86.8,9.39Zm-.18,51a1.68,1.68,0,0,1-1.46.84H57.86l-.09-.15-14-24.33.09-.16L57.38,13.07a1.69,1.69,0,0,1,1.46-.84h27.3l.09.15,14,24.34-.08.15Z"/><rect class="cls-2" x="69.34" y="63.34" width="5.33" height="53.27"/></svg>